<svg width="1512.000000" height="126.000000" viewBox="0 0 1512 126" fill="none" xmlns="http://www.w3.org/2000/svg" xlink="http://www.w3.org/1999/xlink">
	<desc>
			Created with Pixso.
	</desc>
	<defs/>
	<g opacity="0.500000">
		<rect id="pattern2" rx="-0.500000" width="125.000000" height="125.000000" transform="translate(0.500000 0.500000)" fill="#FFFFFF" fill-opacity="0"/>
		<rect id="atom" rx="-0.500000" width="19.337379" height="8.222054" transform="translate(10.389648 10.378662) rotate(41.880878)" fill="#FFFFFF" fill-opacity="0"/>
		<path id="Vector" d="M24.51 22.99L10.4 10.33C10.1 10.07 9.63 10.1 9.39 10.43C6.54 14.24 7.31 19.95 11.3 23.53C15.29 27.1 21.05 27.26 24.53 24C24.82 23.72 24.81 23.26 24.51 22.99Z" fill="#FFFFFF" fill-opacity="1.000000" fill-rule="nonzero"/>
		<rect id="atom" rx="-0.500000" width="19.337383" height="8.222057" transform="translate(112.740234 123.015625) rotate(-138.119064)" fill="#FFFFFF" fill-opacity="0"/>
		<path id="Vector" d="M97.61 109.39L111.72 122.05C112.02 122.32 112.49 122.28 112.73 121.96C115.59 118.15 114.81 112.43 110.82 108.86C106.83 105.28 101.07 105.13 97.59 108.39C97.3 108.66 97.31 109.13 97.61 109.39Z" fill="#FFFFFF" fill-opacity="1.000000" fill-rule="nonzero"/>
		<rect id="atom" rx="-0.500000" width="19.337391" height="8.222057" transform="translate(98.824219 35.621582) rotate(39.257843)" fill="#FFFFFF" fill-opacity="0"/>
		<path id="Vector" d="M113.53 47.55L98.85 35.55C98.54 35.3 98.08 35.36 97.85 35.69C95.17 39.63 96.21 45.3 100.36 48.69C104.51 52.08 110.27 51.97 113.6 48.56C113.88 48.27 113.84 47.8 113.53 47.55Z" fill="#FFFFFF" fill-opacity="1.000000" fill-rule="nonzero"/>
		<rect id="atom" rx="-0.500000" width="19.337391" height="8.222060" transform="translate(32.637695 75.849121) rotate(134.771683)" fill="#FFFFFF" fill-opacity="0"/>
		<path id="Vector" d="M18.29 89.29L31.65 75.83C31.93 75.55 31.92 75.08 31.61 74.83C27.94 71.78 22.2 72.26 18.42 76.07C14.65 79.87 14.21 85.62 17.29 89.26C17.55 89.57 18.01 89.58 18.29 89.29Z" fill="#FFFFFF" fill-opacity="1.000000" fill-rule="nonzero"/>
		<rect id="atom" rx="-0.500000" width="19.337374" height="9.138152" transform="translate(18.850586 38.402588) rotate(83.937759)" fill="#FFFFFF" fill-opacity="0"/>
		<path id="Ellipse 7" d="M15.45 58.66C12.67 58.95 9.93 54.66 9.34 49.08C8.75 43.5 10.52 38.73 13.3 38.43C16.09 38.14 18.83 42.42 19.42 48.01C20.01 53.59 18.24 58.36 15.45 58.66Z" fill="#FFFFFF" fill-opacity="1.000000" fill-rule="nonzero"/>
		<rect id="atom" rx="-0.500000" width="19.337389" height="9.138156" transform="translate(105.892578 89.549561) rotate(-96.062218)" fill="#FFFFFF" fill-opacity="0"/>
		<path id="Ellipse 7" d="M108.28 68.29C111.06 67.99 113.8 72.28 114.4 77.86C114.99 83.45 113.21 88.21 110.43 88.51C107.64 88.8 104.91 84.52 104.31 78.93C103.72 73.35 105.5 68.58 108.28 68.29Z" fill="#FFFFFF" fill-opacity="1.000000" fill-rule="nonzero"/>
		<rect id="atom" rx="-0.500000" width="19.337389" height="7.073940" transform="translate(63.279297 30.110596) rotate(-54.290577)" fill="#FFFFFF" fill-opacity="0"/>
		<path id="Ellipse 7" d="M77.92 15.45C79.73 16.75 78.54 21.5 75.27 26.06C71.99 30.62 67.86 33.26 66.05 31.96C64.24 30.66 65.43 25.91 68.71 21.35C71.99 16.79 76.11 14.15 77.92 15.45Z" fill="#FFFFFF" fill-opacity="1.000000" fill-rule="nonzero"/>
		<rect id="atom" rx="-0.500000" width="19.337372" height="7.073938" transform="translate(57.703125 73.666748) rotate(96.214798)" fill="#FFFFFF" fill-opacity="0"/>
		<path id="Ellipse 7" d="M50.98 92.94C48.77 92.7 47.46 87.98 48.07 82.4C48.68 76.81 50.97 72.48 53.18 72.72C55.4 72.97 56.71 77.69 56.1 83.27C55.49 88.85 53.2 93.18 50.98 92.94Z" fill="#FFFFFF" fill-opacity="1.000000" fill-rule="nonzero"/>
		<rect id="atom" rx="-0.500000" width="19.337381" height="8.283121" transform="translate(34.611328 39.353271) rotate(17.999701)" fill="#FFFFFF" fill-opacity="0"/>
		<path id="Subtract (Stroke)" d="M52.16 45.31C53.09 46.61 52.79 48.41 51.49 49.33C48.57 51.41 44.63 52.03 40.91 50.82C37.18 49.61 34.37 46.8 33.22 43.4C32.72 41.89 33.53 40.25 35.05 39.75C36.56 39.24 38.2 40.06 38.7 41.57C39.24 43.17 40.64 44.67 42.69 45.34C44.74 46 46.75 45.62 48.13 44.63C49.43 43.71 51.23 44.01 52.16 45.31Z" fill="#FFFFFF" fill-opacity="1.000000" fill-rule="evenodd"/>
		<rect id="atom" rx="-0.500000" width="19.337378" height="8.283137" transform="translate(91.841797 87.759766) rotate(-162.000244)" fill="#FFFFFF" fill-opacity="0"/>
		<path id="Subtract (Stroke)" d="M73.28 80.79C72.36 79.5 72.66 77.7 73.95 76.77C76.88 74.69 80.81 74.07 84.54 75.28C88.26 76.49 91.08 79.31 92.22 82.71C92.73 84.22 91.91 85.85 90.4 86.36C88.89 86.86 87.25 86.04 86.74 84.53C86.2 82.93 84.8 81.43 82.75 80.77C80.71 80.1 78.69 80.49 77.31 81.47C76.01 82.39 74.21 82.09 73.28 80.79Z" fill="#FFFFFF" fill-opacity="1.000000" fill-rule="evenodd"/>
		<rect id="atom" rx="-0.500000" width="19.337370" height="8.283123" transform="translate(115.940430 26.919434) rotate(-135.627472)" fill="#FFFFFF" fill-opacity="0"/>
		<path id="Subtract (Stroke)" d="M102.13 12.61C101.88 11.03 102.94 9.55 104.52 9.3C108.06 8.74 111.86 9.93 114.66 12.67C117.46 15.41 118.73 19.18 118.25 22.73C118.03 24.31 116.57 25.41 114.99 25.19C113.42 24.97 112.31 23.51 112.53 21.93C112.76 20.26 112.16 18.29 110.63 16.79C109.09 15.28 107.11 14.73 105.44 15C103.87 15.25 102.39 14.18 102.13 12.61Z" fill="#FFFFFF" fill-opacity="1.000000" fill-rule="evenodd"/>
		<rect id="atom" rx="-0.500000" width="19.337385" height="8.283123" transform="translate(38.981445 110.109619) rotate(8.575407)" fill="#FFFFFF" fill-opacity="0"/>
		<path id="Subtract (Stroke)" d="M57.34 113.02C58.47 114.15 58.47 115.97 57.34 117.1C54.8 119.63 51.02 120.88 47.15 120.3C43.27 119.72 40.03 117.4 38.35 114.24C37.6 112.83 38.14 111.08 39.55 110.34C40.96 109.59 42.71 110.13 43.46 111.54C44.25 113.03 45.88 114.28 48.01 114.6C50.13 114.92 52.06 114.21 53.26 113.02C54.39 111.89 56.22 111.89 57.34 113.02Z" fill="#FFFFFF" fill-opacity="1.000000" fill-rule="evenodd"/>
		<rect id="atom" rx="-0.500000" width="18.176991" height="8.099911" transform="translate(39.500977 13.450195) rotate(-33.850700)" fill="#FFFFFF" fill-opacity="0"/>
		<path id="Rectangle 6255" d="M40.36 14.97C39.61 13.85 39.9 12.34 41.03 11.58L52.89 3.62C54.01 2.87 55.53 3.17 56.28 4.29L58.63 7.79C59.38 8.91 59.08 10.43 57.96 11.18L46.09 19.14C44.97 19.89 43.46 19.59 42.7 18.47L40.36 14.97Z" fill="#FFFFFF" fill-opacity="1.000000" fill-rule="nonzero"/>
		<rect id="atom" rx="-0.500000" width="18.176977" height="8.099898" transform="translate(67.158203 99.858643) rotate(-12.315752)" fill="#FFFFFF" fill-opacity="0"/>
		<path id="Rectangle 6255" d="M67.17 101.74C66.89 100.42 67.72 99.12 69.04 98.83L83 95.78C84.32 95.5 85.62 96.33 85.91 97.65L86.81 101.77C87.1 103.09 86.26 104.39 84.94 104.68L70.98 107.72C69.66 108.01 68.36 107.18 68.07 105.86L67.17 101.74Z" fill="#FFFFFF" fill-opacity="1.000000" fill-rule="nonzero"/>
		<rect id="atom" rx="-0.500000" width="18.176996" height="8.099913" transform="translate(79.924805 64.696777) rotate(-131.732651)" fill="#FFFFFF" fill-opacity="0"/>
		<path id="Rectangle 6255" d="M81.24 62.57C80.24 63.46 78.69 63.38 77.79 62.37L68.28 51.7C67.38 50.7 67.47 49.15 68.48 48.25L71.62 45.45C72.63 44.55 74.17 44.64 75.07 45.65L84.58 56.31C85.48 57.32 85.39 58.86 84.39 59.76L81.24 62.57Z" fill="#FFFFFF" fill-opacity="1.000000" fill-rule="nonzero"/>
		<rect id="atom" rx="-0.500000" width="18.176958" height="8.099909" transform="translate(17.737305 99.865723) rotate(80.259499)" fill="#FFFFFF" fill-opacity="0"/>
		<path id="Rectangle 6255" d="M14.83 99.77C16.15 99.55 17.42 100.44 17.65 101.77L20.06 115.85C20.29 117.18 19.4 118.45 18.07 118.67L13.92 119.39C12.59 119.62 11.32 118.72 11.09 117.39L8.68 103.31C8.45 101.98 9.34 100.72 10.67 100.49L14.83 99.77Z" fill="#FFFFFF" fill-opacity="1.000000" fill-rule="nonzero"/>
		<rect id="pattern2" rx="-0.500000" width="125.000000" height="125.000000" transform="translate(126.500000 0.500000)" fill="#FFFFFF" fill-opacity="0"/>
		<rect id="atom" rx="-0.500000" width="19.337379" height="8.222054" transform="translate(136.389648 10.378662) rotate(41.880878)" fill="#FFFFFF" fill-opacity="0"/>
		<path id="Vector" d="M150.52 22.99L136.4 10.33C136.1 10.07 135.63 10.1 135.39 10.43C132.53 14.24 133.31 19.95 137.3 23.53C141.29 27.1 147.05 27.26 150.53 24C150.82 23.72 150.81 23.26 150.52 22.99Z" fill="#FFFFFF" fill-opacity="1.000000" fill-rule="nonzero"/>
		<rect id="atom" rx="-0.500000" width="19.337383" height="8.222057" transform="translate(238.740234 123.015625) rotate(-138.119064)" fill="#FFFFFF" fill-opacity="0"/>
		<path id="Vector" d="M223.61 109.39L237.72 122.05C238.02 122.32 238.49 122.28 238.73 121.96C241.59 118.15 240.81 112.43 236.82 108.86C232.83 105.28 227.07 105.13 223.59 108.39C223.3 108.66 223.31 109.13 223.61 109.39Z" fill="#FFFFFF" fill-opacity="1.000000" fill-rule="nonzero"/>
		<rect id="atom" rx="-0.500000" width="19.337391" height="8.222057" transform="translate(224.824219 35.621582) rotate(39.257843)" fill="#FFFFFF" fill-opacity="0"/>
		<path id="Vector" d="M239.53 47.55L224.85 35.55C224.55 35.3 224.08 35.36 223.85 35.69C221.17 39.63 222.21 45.3 226.36 48.69C230.51 52.08 236.27 51.97 239.6 48.56C239.88 48.27 239.84 47.8 239.53 47.55Z" fill="#FFFFFF" fill-opacity="1.000000" fill-rule="nonzero"/>
		<rect id="atom" rx="-0.500000" width="19.337391" height="8.222060" transform="translate(158.637695 75.849121) rotate(134.771683)" fill="#FFFFFF" fill-opacity="0"/>
		<path id="Vector" d="M144.29 89.29L157.65 75.83C157.93 75.55 157.92 75.08 157.61 74.83C153.94 71.78 148.2 72.26 144.42 76.07C140.65 79.87 140.21 85.62 143.29 89.26C143.55 89.57 144.01 89.58 144.29 89.29Z" fill="#FFFFFF" fill-opacity="1.000000" fill-rule="nonzero"/>
		<rect id="atom" rx="-0.500000" width="19.337374" height="9.138152" transform="translate(144.850586 38.402588) rotate(83.937759)" fill="#FFFFFF" fill-opacity="0"/>
		<path id="Ellipse 7" d="M141.45 58.66C138.67 58.95 135.93 54.66 135.34 49.08C134.75 43.5 136.52 38.73 139.31 38.43C142.09 38.14 144.83 42.42 145.42 48.01C146.01 53.59 144.24 58.36 141.45 58.66Z" fill="#FFFFFF" fill-opacity="1.000000" fill-rule="nonzero"/>
		<rect id="atom" rx="-0.500000" width="19.337389" height="9.138156" transform="translate(231.892578 89.549561) rotate(-96.062218)" fill="#FFFFFF" fill-opacity="0"/>
		<path id="Ellipse 7" d="M234.28 68.29C237.06 67.99 239.8 72.28 240.4 77.86C240.99 83.45 239.21 88.21 236.43 88.51C233.64 88.8 230.91 84.52 230.31 78.93C229.72 73.35 231.5 68.58 234.28 68.29Z" fill="#FFFFFF" fill-opacity="1.000000" fill-rule="nonzero"/>
		<rect id="atom" rx="-0.500000" width="19.337389" height="7.073940" transform="translate(189.279297 30.110596) rotate(-54.290577)" fill="#FFFFFF" fill-opacity="0"/>
		<path id="Ellipse 7" d="M203.92 15.45C205.73 16.75 204.54 21.5 201.27 26.06C197.99 30.62 193.86 33.26 192.05 31.96C190.24 30.66 191.43 25.91 194.71 21.35C197.99 16.79 202.11 14.15 203.92 15.45Z" fill="#FFFFFF" fill-opacity="1.000000" fill-rule="nonzero"/>
		<rect id="atom" rx="-0.500000" width="19.337372" height="7.073938" transform="translate(183.703125 73.666748) rotate(96.214798)" fill="#FFFFFF" fill-opacity="0"/>
		<path id="Ellipse 7" d="M176.98 92.94C174.77 92.7 173.46 87.98 174.07 82.4C174.68 76.81 176.97 72.48 179.18 72.72C181.4 72.97 182.71 77.69 182.1 83.27C181.49 88.85 179.2 93.18 176.98 92.94Z" fill="#FFFFFF" fill-opacity="1.000000" fill-rule="nonzero"/>
		<rect id="atom" rx="-0.500000" width="19.337381" height="8.283121" transform="translate(160.611328 39.353271) rotate(17.999701)" fill="#FFFFFF" fill-opacity="0"/>
		<path id="Subtract (Stroke)" d="M178.16 45.31C179.09 46.61 178.79 48.41 177.49 49.33C174.57 51.41 170.63 52.03 166.91 50.82C163.18 49.61 160.37 46.8 159.22 43.4C158.72 41.89 159.53 40.25 161.05 39.75C162.56 39.24 164.2 40.06 164.7 41.57C165.24 43.17 166.64 44.67 168.69 45.34C170.74 46 172.75 45.62 174.13 44.63C175.43 43.71 177.23 44.01 178.16 45.31Z" fill="#FFFFFF" fill-opacity="1.000000" fill-rule="evenodd"/>
		<rect id="atom" rx="-0.500000" width="19.337378" height="8.283137" transform="translate(217.841797 87.759766) rotate(-162.000244)" fill="#FFFFFF" fill-opacity="0"/>
		<path id="Subtract (Stroke)" d="M199.28 80.79C198.36 79.5 198.66 77.7 199.95 76.77C202.88 74.69 206.81 74.07 210.54 75.28C214.26 76.49 217.08 79.31 218.22 82.71C218.73 84.22 217.91 85.85 216.4 86.36C214.89 86.86 213.25 86.04 212.74 84.53C212.2 82.93 210.8 81.43 208.75 80.77C206.71 80.1 204.69 80.49 203.31 81.47C202.02 82.39 200.21 82.09 199.28 80.79Z" fill="#FFFFFF" fill-opacity="1.000000" fill-rule="evenodd"/>
		<rect id="atom" rx="-0.500000" width="19.337370" height="8.283123" transform="translate(241.940430 26.919434) rotate(-135.627472)" fill="#FFFFFF" fill-opacity="0"/>
		<path id="Subtract (Stroke)" d="M228.13 12.61C227.88 11.03 228.94 9.55 230.52 9.3C234.06 8.74 237.86 9.93 240.66 12.67C243.46 15.41 244.73 19.18 244.25 22.73C244.03 24.31 242.57 25.41 240.99 25.19C239.42 24.97 238.31 23.51 238.53 21.93C238.76 20.26 238.16 18.29 236.63 16.79C235.09 15.28 233.11 14.73 231.44 15C229.87 15.25 228.39 14.18 228.13 12.61Z" fill="#FFFFFF" fill-opacity="1.000000" fill-rule="evenodd"/>
		<rect id="atom" rx="-0.500000" width="19.337385" height="8.283123" transform="translate(164.981445 110.109619) rotate(8.575407)" fill="#FFFFFF" fill-opacity="0"/>
		<path id="Subtract (Stroke)" d="M183.34 113.02C184.47 114.15 184.47 115.97 183.34 117.1C180.8 119.63 177.02 120.88 173.15 120.3C169.27 119.72 166.03 117.4 164.35 114.24C163.6 112.83 164.14 111.08 165.55 110.34C166.96 109.59 168.71 110.13 169.46 111.54C170.25 113.03 171.88 114.28 174.01 114.6C176.14 114.92 178.06 114.21 179.26 113.02C180.39 111.89 182.22 111.89 183.34 113.02Z" fill="#FFFFFF" fill-opacity="1.000000" fill-rule="evenodd"/>
		<rect id="atom" rx="-0.500000" width="18.176991" height="8.099911" transform="translate(165.500977 13.450195) rotate(-33.850700)" fill="#FFFFFF" fill-opacity="0"/>
		<path id="Rectangle 6255" d="M166.36 14.97C165.61 13.85 165.9 12.34 167.03 11.58L178.89 3.62C180.01 2.87 181.53 3.17 182.28 4.29L184.63 7.79C185.38 8.91 185.08 10.43 183.96 11.18L172.09 19.14C170.97 19.89 169.46 19.59 168.7 18.47L166.36 14.97Z" fill="#FFFFFF" fill-opacity="1.000000" fill-rule="nonzero"/>
		<rect id="atom" rx="-0.500000" width="18.176977" height="8.099898" transform="translate(193.158203 99.858643) rotate(-12.315752)" fill="#FFFFFF" fill-opacity="0"/>
		<path id="Rectangle 6255" d="M193.18 101.74C192.89 100.42 193.72 99.12 195.04 98.83L209 95.78C210.32 95.5 211.62 96.33 211.91 97.65L212.81 101.77C213.1 103.09 212.26 104.39 210.94 104.68L196.98 107.72C195.66 108.01 194.36 107.18 194.07 105.86L193.18 101.74Z" fill="#FFFFFF" fill-opacity="1.000000" fill-rule="nonzero"/>
		<rect id="atom" rx="-0.500000" width="18.176996" height="8.099913" transform="translate(205.924805 64.696777) rotate(-131.732651)" fill="#FFFFFF" fill-opacity="0"/>
		<path id="Rectangle 6255" d="M207.24 62.57C206.24 63.46 204.69 63.38 203.79 62.37L194.28 51.7C193.38 50.7 193.47 49.15 194.48 48.25L197.62 45.45C198.63 44.55 200.17 44.64 201.07 45.65L210.59 56.31C211.48 57.32 211.39 58.86 210.39 59.76L207.24 62.57Z" fill="#FFFFFF" fill-opacity="1.000000" fill-rule="nonzero"/>
		<rect id="atom" rx="-0.500000" width="18.176958" height="8.099909" transform="translate(143.737305 99.865723) rotate(80.259499)" fill="#FFFFFF" fill-opacity="0"/>
		<path id="Rectangle 6255" d="M140.83 99.77C142.15 99.55 143.42 100.44 143.64 101.77L146.06 115.85C146.29 117.18 145.4 118.45 144.07 118.67L139.92 119.39C138.59 119.62 137.32 118.72 137.1 117.39L134.68 103.31C134.45 101.98 135.34 100.72 136.67 100.49L140.83 99.77Z" fill="#FFFFFF" fill-opacity="1.000000" fill-rule="nonzero"/>
		<rect id="pattern2" rx="-0.500000" width="125.000000" height="125.000000" transform="translate(252.500000 0.500000)" fill="#FFFFFF" fill-opacity="0"/>
		<rect id="atom" rx="-0.500000" width="19.337379" height="8.222054" transform="translate(262.389648 10.378662) rotate(41.880878)" fill="#FFFFFF" fill-opacity="0"/>
		<path id="Vector" d="M276.51 22.99L262.4 10.33C262.1 10.07 261.63 10.1 261.39 10.43C258.54 14.24 259.31 19.95 263.3 23.53C267.29 27.1 273.05 27.26 276.53 24C276.82 23.72 276.81 23.26 276.51 22.99Z" fill="#FFFFFF" fill-opacity="1.000000" fill-rule="nonzero"/>
		<rect id="atom" rx="-0.500000" width="19.337383" height="8.222057" transform="translate(364.740234 123.015625) rotate(-138.119064)" fill="#FFFFFF" fill-opacity="0"/>
		<path id="Vector" d="M349.61 109.39L363.72 122.05C364.02 122.32 364.49 122.28 364.73 121.96C367.59 118.15 366.81 112.43 362.82 108.86C358.83 105.28 353.07 105.13 349.59 108.39C349.3 108.66 349.31 109.13 349.61 109.39Z" fill="#FFFFFF" fill-opacity="1.000000" fill-rule="nonzero"/>
		<rect id="atom" rx="-0.500000" width="19.337391" height="8.222057" transform="translate(350.824219 35.621582) rotate(39.257843)" fill="#FFFFFF" fill-opacity="0"/>
		<path id="Vector" d="M365.53 47.55L350.85 35.55C350.55 35.3 350.08 35.36 349.85 35.69C347.17 39.63 348.21 45.3 352.36 48.69C356.51 52.08 362.27 51.97 365.6 48.56C365.88 48.27 365.84 47.8 365.53 47.55Z" fill="#FFFFFF" fill-opacity="1.000000" fill-rule="nonzero"/>
		<rect id="atom" rx="-0.500000" width="19.337391" height="8.222060" transform="translate(284.637695 75.849121) rotate(134.771683)" fill="#FFFFFF" fill-opacity="0"/>
		<path id="Vector" d="M270.29 89.29L283.65 75.83C283.93 75.55 283.92 75.08 283.61 74.83C279.94 71.78 274.2 72.26 270.42 76.07C266.65 79.87 266.21 85.62 269.29 89.26C269.55 89.57 270.01 89.58 270.29 89.29Z" fill="#FFFFFF" fill-opacity="1.000000" fill-rule="nonzero"/>
		<rect id="atom" rx="-0.500000" width="19.337374" height="9.138152" transform="translate(270.850586 38.402588) rotate(83.937759)" fill="#FFFFFF" fill-opacity="0"/>
		<path id="Ellipse 7" d="M267.45 58.66C264.67 58.95 261.93 54.66 261.34 49.08C260.75 43.5 262.52 38.73 265.31 38.43C268.09 38.14 270.83 42.42 271.42 48.01C272.01 53.59 270.24 58.36 267.45 58.66Z" fill="#FFFFFF" fill-opacity="1.000000" fill-rule="nonzero"/>
		<rect id="atom" rx="-0.500000" width="19.337389" height="9.138156" transform="translate(357.892578 89.549561) rotate(-96.062218)" fill="#FFFFFF" fill-opacity="0"/>
		<path id="Ellipse 7" d="M360.28 68.29C363.06 67.99 365.8 72.28 366.4 77.86C366.99 83.45 365.21 88.21 362.43 88.51C359.64 88.8 356.91 84.52 356.31 78.93C355.72 73.35 357.5 68.58 360.28 68.29Z" fill="#FFFFFF" fill-opacity="1.000000" fill-rule="nonzero"/>
		<rect id="atom" rx="-0.500000" width="19.337389" height="7.073940" transform="translate(315.279297 30.110596) rotate(-54.290577)" fill="#FFFFFF" fill-opacity="0"/>
		<path id="Ellipse 7" d="M329.92 15.45C331.73 16.75 330.54 21.5 327.27 26.06C323.99 30.62 319.86 33.26 318.05 31.96C316.24 30.66 317.43 25.91 320.71 21.35C323.99 16.79 328.11 14.15 329.92 15.45Z" fill="#FFFFFF" fill-opacity="1.000000" fill-rule="nonzero"/>
		<rect id="atom" rx="-0.500000" width="19.337372" height="7.073938" transform="translate(309.703125 73.666748) rotate(96.214798)" fill="#FFFFFF" fill-opacity="0"/>
		<path id="Ellipse 7" d="M302.98 92.94C300.77 92.7 299.46 87.98 300.07 82.4C300.68 76.81 302.97 72.48 305.18 72.72C307.4 72.97 308.71 77.69 308.1 83.27C307.49 88.85 305.2 93.18 302.98 92.94Z" fill="#FFFFFF" fill-opacity="1.000000" fill-rule="nonzero"/>
		<rect id="atom" rx="-0.500000" width="19.337381" height="8.283121" transform="translate(286.611328 39.353271) rotate(17.999701)" fill="#FFFFFF" fill-opacity="0"/>
		<path id="Subtract (Stroke)" d="M304.16 45.31C305.09 46.61 304.79 48.41 303.49 49.33C300.57 51.41 296.63 52.03 292.91 50.82C289.18 49.61 286.37 46.8 285.22 43.4C284.72 41.89 285.53 40.25 287.05 39.75C288.56 39.24 290.2 40.06 290.7 41.57C291.24 43.17 292.64 44.67 294.69 45.34C296.74 46 298.75 45.62 300.13 44.63C301.43 43.71 303.23 44.01 304.16 45.31Z" fill="#FFFFFF" fill-opacity="1.000000" fill-rule="evenodd"/>
		<rect id="atom" rx="-0.500000" width="19.337378" height="8.283137" transform="translate(343.841797 87.759766) rotate(-162.000244)" fill="#FFFFFF" fill-opacity="0"/>
		<path id="Subtract (Stroke)" d="M325.28 80.79C324.36 79.5 324.66 77.7 325.95 76.77C328.88 74.69 332.81 74.07 336.54 75.28C340.26 76.49 343.08 79.31 344.22 82.71C344.73 84.22 343.91 85.85 342.4 86.36C340.89 86.86 339.25 86.04 338.74 84.53C338.2 82.93 336.8 81.43 334.75 80.77C332.71 80.1 330.69 80.49 329.31 81.47C328.02 82.39 326.21 82.09 325.28 80.79Z" fill="#FFFFFF" fill-opacity="1.000000" fill-rule="evenodd"/>
		<rect id="atom" rx="-0.500000" width="19.337370" height="8.283123" transform="translate(367.940430 26.919434) rotate(-135.627472)" fill="#FFFFFF" fill-opacity="0"/>
		<path id="Subtract (Stroke)" d="M354.13 12.61C353.88 11.03 354.94 9.55 356.52 9.3C360.06 8.74 363.86 9.93 366.66 12.67C369.46 15.41 370.73 19.18 370.25 22.73C370.03 24.31 368.57 25.41 366.99 25.19C365.42 24.97 364.31 23.51 364.53 21.93C364.76 20.26 364.16 18.29 362.63 16.79C361.09 15.28 359.11 14.73 357.44 15C355.87 15.25 354.39 14.18 354.13 12.61Z" fill="#FFFFFF" fill-opacity="1.000000" fill-rule="evenodd"/>
		<rect id="atom" rx="-0.500000" width="19.337385" height="8.283123" transform="translate(290.981445 110.109619) rotate(8.575407)" fill="#FFFFFF" fill-opacity="0"/>
		<path id="Subtract (Stroke)" d="M309.34 113.02C310.47 114.15 310.47 115.97 309.34 117.1C306.8 119.63 303.02 120.88 299.15 120.3C295.27 119.72 292.03 117.4 290.35 114.24C289.6 112.83 290.14 111.08 291.55 110.34C292.96 109.59 294.71 110.13 295.46 111.54C296.25 113.03 297.88 114.28 300.01 114.6C302.14 114.92 304.06 114.21 305.26 113.02C306.39 111.89 308.22 111.89 309.34 113.02Z" fill="#FFFFFF" fill-opacity="1.000000" fill-rule="evenodd"/>
		<rect id="atom" rx="-0.500000" width="18.176991" height="8.099911" transform="translate(291.500977 13.450195) rotate(-33.850700)" fill="#FFFFFF" fill-opacity="0"/>
		<path id="Rectangle 6255" d="M292.36 14.97C291.6 13.85 291.9 12.34 293.03 11.58L304.89 3.62C306.01 2.87 307.53 3.17 308.28 4.29L310.63 7.79C311.38 8.91 311.08 10.43 309.96 11.18L298.09 19.14C296.97 19.89 295.46 19.59 294.7 18.47L292.36 14.97Z" fill="#FFFFFF" fill-opacity="1.000000" fill-rule="nonzero"/>
		<rect id="atom" rx="-0.500000" width="18.176977" height="8.099898" transform="translate(319.158203 99.858643) rotate(-12.315752)" fill="#FFFFFF" fill-opacity="0"/>
		<path id="Rectangle 6255" d="M319.18 101.74C318.89 100.42 319.72 99.12 321.04 98.83L335 95.78C336.32 95.5 337.62 96.33 337.91 97.65L338.81 101.77C339.1 103.09 338.26 104.39 336.94 104.68L322.98 107.72C321.66 108.01 320.36 107.18 320.07 105.86L319.18 101.74Z" fill="#FFFFFF" fill-opacity="1.000000" fill-rule="nonzero"/>
		<rect id="atom" rx="-0.500000" width="18.176996" height="8.099913" transform="translate(331.924805 64.696777) rotate(-131.732651)" fill="#FFFFFF" fill-opacity="0"/>
		<path id="Rectangle 6255" d="M333.24 62.57C332.24 63.46 330.69 63.38 329.79 62.37L320.28 51.7C319.38 50.7 319.47 49.15 320.48 48.25L323.62 45.45C324.63 44.55 326.17 44.64 327.07 45.65L336.59 56.31C337.48 57.32 337.39 58.86 336.39 59.76L333.24 62.57Z" fill="#FFFFFF" fill-opacity="1.000000" fill-rule="nonzero"/>
		<rect id="atom" rx="-0.500000" width="18.176958" height="8.099909" transform="translate(269.737305 99.865723) rotate(80.259499)" fill="#FFFFFF" fill-opacity="0"/>
		<path id="Rectangle 6255" d="M266.82 99.77C268.15 99.55 269.42 100.44 269.65 101.77L272.06 115.85C272.29 117.18 271.4 118.45 270.07 118.67L265.92 119.39C264.59 119.62 263.32 118.72 263.1 117.39L260.68 103.31C260.45 101.98 261.34 100.72 262.67 100.49L266.82 99.77Z" fill="#FFFFFF" fill-opacity="1.000000" fill-rule="nonzero"/>
		<rect id="pattern2" rx="-0.500000" width="125.000000" height="125.000000" transform="translate(378.500000 0.500000)" fill="#FFFFFF" fill-opacity="0"/>
		<rect id="atom" rx="-0.500000" width="19.337379" height="8.222054" transform="translate(388.389648 10.378662) rotate(41.880878)" fill="#FFFFFF" fill-opacity="0"/>
		<path id="Vector" d="M402.52 22.99L388.4 10.33C388.1 10.07 387.63 10.1 387.39 10.43C384.54 14.24 385.31 19.95 389.3 23.53C393.29 27.1 399.05 27.26 402.53 24C402.82 23.72 402.81 23.26 402.52 22.99Z" fill="#FFFFFF" fill-opacity="1.000000" fill-rule="nonzero"/>
		<rect id="atom" rx="-0.500000" width="19.337383" height="8.222057" transform="translate(490.740234 123.015625) rotate(-138.119064)" fill="#FFFFFF" fill-opacity="0"/>
		<path id="Vector" d="M475.61 109.39L489.72 122.05C490.02 122.32 490.49 122.28 490.73 121.96C493.59 118.15 492.81 112.43 488.82 108.86C484.83 105.28 479.07 105.13 475.59 108.39C475.3 108.66 475.31 109.13 475.61 109.39Z" fill="#FFFFFF" fill-opacity="1.000000" fill-rule="nonzero"/>
		<rect id="atom" rx="-0.500000" width="19.337391" height="8.222057" transform="translate(476.824219 35.621582) rotate(39.257843)" fill="#FFFFFF" fill-opacity="0"/>
		<path id="Vector" d="M491.53 47.55L476.85 35.55C476.55 35.3 476.08 35.36 475.85 35.69C473.17 39.63 474.21 45.3 478.36 48.69C482.51 52.08 488.27 51.97 491.6 48.56C491.88 48.27 491.84 47.8 491.53 47.55Z" fill="#FFFFFF" fill-opacity="1.000000" fill-rule="nonzero"/>
		<rect id="atom" rx="-0.500000" width="19.337391" height="8.222060" transform="translate(410.637695 75.849121) rotate(134.771683)" fill="#FFFFFF" fill-opacity="0"/>
		<path id="Vector" d="M396.29 89.29L409.65 75.83C409.93 75.55 409.92 75.08 409.61 74.83C405.94 71.78 400.2 72.26 396.42 76.07C392.65 79.87 392.21 85.62 395.29 89.26C395.55 89.57 396.01 89.58 396.29 89.29Z" fill="#FFFFFF" fill-opacity="1.000000" fill-rule="nonzero"/>
		<rect id="atom" rx="-0.500000" width="19.337374" height="9.138152" transform="translate(396.850586 38.402588) rotate(83.937759)" fill="#FFFFFF" fill-opacity="0"/>
		<path id="Ellipse 7" d="M393.45 58.66C390.67 58.95 387.93 54.66 387.34 49.08C386.75 43.5 388.52 38.73 391.31 38.43C394.09 38.14 396.83 42.42 397.42 48.01C398.01 53.59 396.24 58.36 393.45 58.66Z" fill="#FFFFFF" fill-opacity="1.000000" fill-rule="nonzero"/>
		<rect id="atom" rx="-0.500000" width="19.337389" height="9.138156" transform="translate(483.892578 89.549561) rotate(-96.062218)" fill="#FFFFFF" fill-opacity="0"/>
		<path id="Ellipse 7" d="M486.28 68.29C489.06 67.99 491.8 72.28 492.4 77.86C492.99 83.45 491.21 88.21 488.43 88.51C485.64 88.8 482.91 84.52 482.31 78.93C481.72 73.35 483.5 68.58 486.28 68.29Z" fill="#FFFFFF" fill-opacity="1.000000" fill-rule="nonzero"/>
		<rect id="atom" rx="-0.500000" width="19.337389" height="7.073940" transform="translate(441.279297 30.110596) rotate(-54.290577)" fill="#FFFFFF" fill-opacity="0"/>
		<path id="Ellipse 7" d="M455.92 15.45C457.73 16.75 456.54 21.5 453.27 26.06C449.99 30.62 445.86 33.26 444.05 31.96C442.24 30.66 443.43 25.91 446.71 21.35C449.99 16.79 454.11 14.15 455.92 15.45Z" fill="#FFFFFF" fill-opacity="1.000000" fill-rule="nonzero"/>
		<rect id="atom" rx="-0.500000" width="19.337372" height="7.073938" transform="translate(435.703125 73.666748) rotate(96.214798)" fill="#FFFFFF" fill-opacity="0"/>
		<path id="Ellipse 7" d="M428.98 92.94C426.77 92.7 425.46 87.98 426.07 82.4C426.68 76.81 428.97 72.48 431.18 72.72C433.4 72.97 434.71 77.69 434.1 83.27C433.49 88.85 431.2 93.18 428.98 92.94Z" fill="#FFFFFF" fill-opacity="1.000000" fill-rule="nonzero"/>
		<rect id="atom" rx="-0.500000" width="19.337381" height="8.283121" transform="translate(412.611328 39.353271) rotate(17.999701)" fill="#FFFFFF" fill-opacity="0"/>
		<path id="Subtract (Stroke)" d="M430.16 45.31C431.09 46.61 430.79 48.41 429.49 49.33C426.57 51.41 422.63 52.03 418.91 50.82C415.18 49.61 412.37 46.8 411.22 43.4C410.72 41.89 411.53 40.25 413.05 39.75C414.56 39.24 416.2 40.06 416.7 41.57C417.24 43.17 418.64 44.67 420.69 45.34C422.74 46 424.75 45.62 426.13 44.63C427.43 43.71 429.23 44.01 430.16 45.31Z" fill="#FFFFFF" fill-opacity="1.000000" fill-rule="evenodd"/>
		<rect id="atom" rx="-0.500000" width="19.337378" height="8.283137" transform="translate(469.841797 87.759766) rotate(-162.000244)" fill="#FFFFFF" fill-opacity="0"/>
		<path id="Subtract (Stroke)" d="M451.28 80.79C450.36 79.5 450.66 77.7 451.95 76.77C454.88 74.69 458.81 74.07 462.54 75.28C466.26 76.49 469.08 79.31 470.22 82.71C470.73 84.22 469.91 85.85 468.4 86.36C466.89 86.86 465.25 86.04 464.74 84.53C464.2 82.93 462.8 81.43 460.75 80.77C458.71 80.1 456.69 80.49 455.31 81.47C454.02 82.39 452.21 82.09 451.28 80.79Z" fill="#FFFFFF" fill-opacity="1.000000" fill-rule="evenodd"/>
		<rect id="atom" rx="-0.500000" width="19.337370" height="8.283123" transform="translate(493.940430 26.919434) rotate(-135.627472)" fill="#FFFFFF" fill-opacity="0"/>
		<path id="Subtract (Stroke)" d="M480.13 12.61C479.88 11.03 480.94 9.55 482.52 9.3C486.06 8.74 489.86 9.93 492.66 12.67C495.46 15.41 496.73 19.18 496.25 22.73C496.03 24.31 494.57 25.41 492.99 25.19C491.42 24.97 490.31 23.51 490.53 21.93C490.76 20.26 490.16 18.29 488.63 16.79C487.09 15.28 485.11 14.73 483.44 15C481.87 15.25 480.39 14.18 480.13 12.61Z" fill="#FFFFFF" fill-opacity="1.000000" fill-rule="evenodd"/>
		<rect id="atom" rx="-0.500000" width="19.337385" height="8.283123" transform="translate(416.981445 110.109619) rotate(8.575407)" fill="#FFFFFF" fill-opacity="0"/>
		<path id="Subtract (Stroke)" d="M435.34 113.02C436.47 114.15 436.47 115.97 435.34 117.1C432.8 119.63 429.02 120.88 425.15 120.3C421.27 119.72 418.03 117.4 416.35 114.24C415.6 112.83 416.14 111.08 417.55 110.34C418.96 109.59 420.71 110.13 421.46 111.54C422.25 113.03 423.88 114.28 426.01 114.6C428.14 114.92 430.06 114.21 431.26 113.02C432.39 111.89 434.22 111.89 435.34 113.02Z" fill="#FFFFFF" fill-opacity="1.000000" fill-rule="evenodd"/>
		<rect id="atom" rx="-0.500000" width="18.176991" height="8.099911" transform="translate(417.500977 13.450195) rotate(-33.850700)" fill="#FFFFFF" fill-opacity="0"/>
		<path id="Rectangle 6255" d="M418.36 14.97C417.61 13.85 417.9 12.34 419.03 11.58L430.89 3.62C432.01 2.87 433.53 3.17 434.28 4.29L436.63 7.79C437.38 8.91 437.08 10.43 435.96 11.18L424.09 19.14C422.97 19.89 421.46 19.59 420.7 18.47L418.36 14.97Z" fill="#FFFFFF" fill-opacity="1.000000" fill-rule="nonzero"/>
		<rect id="atom" rx="-0.500000" width="18.176977" height="8.099898" transform="translate(445.158203 99.858643) rotate(-12.315752)" fill="#FFFFFF" fill-opacity="0"/>
		<path id="Rectangle 6255" d="M445.18 101.74C444.89 100.42 445.72 99.12 447.04 98.83L461 95.78C462.32 95.5 463.62 96.33 463.91 97.65L464.81 101.77C465.1 103.09 464.26 104.39 462.94 104.68L448.98 107.72C447.66 108.01 446.36 107.18 446.07 105.86L445.18 101.74Z" fill="#FFFFFF" fill-opacity="1.000000" fill-rule="nonzero"/>
		<rect id="atom" rx="-0.500000" width="18.176996" height="8.099913" transform="translate(457.924805 64.696777) rotate(-131.732651)" fill="#FFFFFF" fill-opacity="0"/>
		<path id="Rectangle 6255" d="M459.24 62.57C458.24 63.46 456.69 63.38 455.79 62.37L446.28 51.7C445.38 50.7 445.47 49.15 446.48 48.25L449.62 45.45C450.63 44.55 452.17 44.64 453.07 45.65L462.59 56.31C463.48 57.32 463.39 58.86 462.39 59.76L459.24 62.57Z" fill="#FFFFFF" fill-opacity="1.000000" fill-rule="nonzero"/>
		<rect id="atom" rx="-0.500000" width="18.176958" height="8.099909" transform="translate(395.737305 99.865723) rotate(80.259499)" fill="#FFFFFF" fill-opacity="0"/>
		<path id="Rectangle 6255" d="M392.83 99.77C394.15 99.55 395.42 100.44 395.65 101.77L398.06 115.85C398.29 117.18 397.4 118.45 396.07 118.67L391.92 119.39C390.59 119.62 389.32 118.72 389.1 117.39L386.68 103.31C386.45 101.98 387.34 100.72 388.67 100.49L392.83 99.77Z" fill="#FFFFFF" fill-opacity="1.000000" fill-rule="nonzero"/>
		<rect id="pattern2" rx="-0.500000" width="125.000000" height="125.000000" transform="translate(504.500000 0.500000)" fill="#FFFFFF" fill-opacity="0"/>
		<rect id="atom" rx="-0.500000" width="19.337379" height="8.222054" transform="translate(514.389648 10.378662) rotate(41.880878)" fill="#FFFFFF" fill-opacity="0"/>
		<path id="Vector" d="M528.52 22.99L514.4 10.33C514.1 10.07 513.63 10.1 513.39 10.43C510.54 14.24 511.31 19.95 515.3 23.53C519.29 27.1 525.05 27.26 528.53 24C528.82 23.72 528.81 23.26 528.52 22.99Z" fill="#FFFFFF" fill-opacity="1.000000" fill-rule="nonzero"/>
		<rect id="atom" rx="-0.500000" width="19.337383" height="8.222057" transform="translate(616.740234 123.015625) rotate(-138.119064)" fill="#FFFFFF" fill-opacity="0"/>
		<path id="Vector" d="M601.61 109.39L615.72 122.05C616.02 122.32 616.49 122.28 616.73 121.96C619.59 118.15 618.81 112.43 614.82 108.86C610.83 105.28 605.07 105.13 601.59 108.39C601.3 108.66 601.31 109.13 601.61 109.39Z" fill="#FFFFFF" fill-opacity="1.000000" fill-rule="nonzero"/>
		<rect id="atom" rx="-0.500000" width="19.337391" height="8.222057" transform="translate(602.824219 35.621582) rotate(39.257843)" fill="#FFFFFF" fill-opacity="0"/>
		<path id="Vector" d="M617.53 47.55L602.85 35.55C602.55 35.3 602.08 35.36 601.85 35.69C599.17 39.63 600.21 45.3 604.36 48.69C608.51 52.08 614.27 51.97 617.6 48.56C617.88 48.27 617.84 47.8 617.53 47.55Z" fill="#FFFFFF" fill-opacity="1.000000" fill-rule="nonzero"/>
		<rect id="atom" rx="-0.500000" width="19.337391" height="8.222060" transform="translate(536.637695 75.849121) rotate(134.771683)" fill="#FFFFFF" fill-opacity="0"/>
		<path id="Vector" d="M522.29 89.29L535.65 75.83C535.93 75.55 535.92 75.08 535.61 74.83C531.94 71.78 526.2 72.26 522.42 76.07C518.65 79.87 518.21 85.62 521.29 89.26C521.55 89.57 522.01 89.58 522.29 89.29Z" fill="#FFFFFF" fill-opacity="1.000000" fill-rule="nonzero"/>
		<rect id="atom" rx="-0.500000" width="19.337374" height="9.138152" transform="translate(522.850586 38.402588) rotate(83.937759)" fill="#FFFFFF" fill-opacity="0"/>
		<path id="Ellipse 7" d="M519.45 58.66C516.67 58.95 513.93 54.66 513.34 49.08C512.75 43.5 514.52 38.73 517.31 38.43C520.09 38.14 522.83 42.42 523.42 48.01C524.01 53.59 522.24 58.36 519.45 58.66Z" fill="#FFFFFF" fill-opacity="1.000000" fill-rule="nonzero"/>
		<rect id="atom" rx="-0.500000" width="19.337389" height="9.138156" transform="translate(609.892578 89.549561) rotate(-96.062218)" fill="#FFFFFF" fill-opacity="0"/>
		<path id="Ellipse 7" d="M612.28 68.29C615.06 67.99 617.8 72.28 618.4 77.86C618.99 83.45 617.21 88.21 614.43 88.51C611.64 88.8 608.91 84.52 608.31 78.93C607.72 73.35 609.5 68.58 612.28 68.29Z" fill="#FFFFFF" fill-opacity="1.000000" fill-rule="nonzero"/>
		<rect id="atom" rx="-0.500000" width="19.337389" height="7.073940" transform="translate(567.279297 30.110596) rotate(-54.290577)" fill="#FFFFFF" fill-opacity="0"/>
		<path id="Ellipse 7" d="M581.92 15.45C583.73 16.75 582.54 21.5 579.27 26.06C575.99 30.62 571.86 33.26 570.05 31.96C568.24 30.66 569.43 25.91 572.71 21.35C575.99 16.79 580.11 14.15 581.92 15.45Z" fill="#FFFFFF" fill-opacity="1.000000" fill-rule="nonzero"/>
		<rect id="atom" rx="-0.500000" width="19.337372" height="7.073938" transform="translate(561.703125 73.666748) rotate(96.214798)" fill="#FFFFFF" fill-opacity="0"/>
		<path id="Ellipse 7" d="M554.98 92.94C552.77 92.7 551.46 87.98 552.07 82.4C552.68 76.81 554.97 72.48 557.18 72.72C559.4 72.97 560.71 77.69 560.1 83.27C559.49 88.85 557.2 93.18 554.98 92.94Z" fill="#FFFFFF" fill-opacity="1.000000" fill-rule="nonzero"/>
		<rect id="atom" rx="-0.500000" width="19.337381" height="8.283121" transform="translate(538.611328 39.353271) rotate(17.999701)" fill="#FFFFFF" fill-opacity="0"/>
		<path id="Subtract (Stroke)" d="M556.16 45.31C557.09 46.61 556.79 48.41 555.49 49.33C552.57 51.41 548.63 52.03 544.91 50.82C541.18 49.61 538.37 46.8 537.22 43.4C536.72 41.89 537.53 40.25 539.05 39.75C540.56 39.24 542.2 40.06 542.7 41.57C543.24 43.17 544.64 44.67 546.69 45.34C548.74 46 550.75 45.62 552.13 44.63C553.43 43.71 555.23 44.01 556.16 45.31Z" fill="#FFFFFF" fill-opacity="1.000000" fill-rule="evenodd"/>
		<rect id="atom" rx="-0.500000" width="19.337378" height="8.283137" transform="translate(595.841797 87.759766) rotate(-162.000244)" fill="#FFFFFF" fill-opacity="0"/>
		<path id="Subtract (Stroke)" d="M577.28 80.79C576.36 79.5 576.66 77.7 577.95 76.77C580.88 74.69 584.81 74.07 588.53 75.28C592.26 76.49 595.08 79.31 596.22 82.71C596.73 84.22 595.91 85.85 594.4 86.36C592.89 86.86 591.25 86.04 590.74 84.53C590.2 82.93 588.8 81.43 586.75 80.77C584.71 80.1 582.69 80.49 581.31 81.47C580.02 82.39 578.21 82.09 577.28 80.79Z" fill="#FFFFFF" fill-opacity="1.000000" fill-rule="evenodd"/>
		<rect id="atom" rx="-0.500000" width="19.337370" height="8.283123" transform="translate(619.940430 26.919434) rotate(-135.627472)" fill="#FFFFFF" fill-opacity="0"/>
		<path id="Subtract (Stroke)" d="M606.13 12.61C605.88 11.03 606.94 9.55 608.52 9.3C612.06 8.74 615.86 9.93 618.66 12.67C621.46 15.41 622.73 19.18 622.25 22.73C622.03 24.31 620.57 25.41 618.99 25.19C617.42 24.97 616.31 23.51 616.53 21.93C616.76 20.26 616.16 18.29 614.63 16.79C613.09 15.28 611.11 14.73 609.44 15C607.87 15.25 606.39 14.18 606.13 12.61Z" fill="#FFFFFF" fill-opacity="1.000000" fill-rule="evenodd"/>
		<rect id="atom" rx="-0.500000" width="19.337385" height="8.283123" transform="translate(542.981445 110.109619) rotate(8.575407)" fill="#FFFFFF" fill-opacity="0"/>
		<path id="Subtract (Stroke)" d="M561.34 113.02C562.47 114.15 562.47 115.97 561.34 117.1C558.8 119.63 555.02 120.88 551.15 120.3C547.27 119.72 544.03 117.4 542.35 114.24C541.6 112.83 542.14 111.08 543.55 110.34C544.96 109.59 546.71 110.13 547.46 111.54C548.25 113.03 549.88 114.28 552.01 114.6C554.14 114.92 556.06 114.21 557.26 113.02C558.39 111.89 560.22 111.89 561.34 113.02Z" fill="#FFFFFF" fill-opacity="1.000000" fill-rule="evenodd"/>
		<rect id="atom" rx="-0.500000" width="18.176991" height="8.099911" transform="translate(543.500977 13.450195) rotate(-33.850700)" fill="#FFFFFF" fill-opacity="0"/>
		<path id="Rectangle 6255" d="M544.36 14.97C543.61 13.85 543.9 12.34 545.03 11.58L556.89 3.62C558.01 2.87 559.53 3.17 560.28 4.29L562.63 7.79C563.38 8.91 563.08 10.43 561.96 11.18L550.09 19.14C548.97 19.89 547.46 19.59 546.7 18.47L544.36 14.97Z" fill="#FFFFFF" fill-opacity="1.000000" fill-rule="nonzero"/>
		<rect id="atom" rx="-0.500000" width="18.176977" height="8.099898" transform="translate(571.158203 99.858643) rotate(-12.315752)" fill="#FFFFFF" fill-opacity="0"/>
		<path id="Rectangle 6255" d="M571.18 101.74C570.89 100.42 571.72 99.12 573.04 98.83L587 95.78C588.32 95.5 589.62 96.33 589.91 97.65L590.81 101.77C591.1 103.09 590.26 104.39 588.94 104.68L574.98 107.72C573.66 108.01 572.36 107.18 572.07 105.86L571.18 101.74Z" fill="#FFFFFF" fill-opacity="1.000000" fill-rule="nonzero"/>
		<rect id="atom" rx="-0.500000" width="18.176996" height="8.099913" transform="translate(583.924805 64.696777) rotate(-131.732651)" fill="#FFFFFF" fill-opacity="0"/>
		<path id="Rectangle 6255" d="M585.24 62.57C584.24 63.46 582.69 63.38 581.79 62.37L572.28 51.7C571.38 50.7 571.47 49.15 572.48 48.25L575.62 45.45C576.63 44.55 578.17 44.64 579.07 45.65L588.59 56.31C589.48 57.32 589.39 58.86 588.39 59.76L585.24 62.57Z" fill="#FFFFFF" fill-opacity="1.000000" fill-rule="nonzero"/>
		<rect id="atom" rx="-0.500000" width="18.176958" height="8.099909" transform="translate(521.737305 99.865723) rotate(80.259499)" fill="#FFFFFF" fill-opacity="0"/>
		<path id="Rectangle 6255" d="M518.83 99.77C520.15 99.55 521.42 100.44 521.65 101.77L524.06 115.85C524.29 117.18 523.4 118.45 522.07 118.67L517.92 119.39C516.59 119.62 515.32 118.72 515.09 117.39L512.68 103.31C512.45 101.98 513.34 100.72 514.67 100.49L518.83 99.77Z" fill="#FFFFFF" fill-opacity="1.000000" fill-rule="nonzero"/>
		<rect id="pattern2" rx="-0.500000" width="125.000000" height="125.000000" transform="translate(630.500000 0.500000)" fill="#FFFFFF" fill-opacity="0"/>
		<rect id="atom" rx="-0.500000" width="19.337379" height="8.222054" transform="translate(640.389648 10.378662) rotate(41.880878)" fill="#FFFFFF" fill-opacity="0"/>
		<path id="Vector" d="M654.52 22.99L640.4 10.33C640.1 10.07 639.63 10.1 639.39 10.43C636.53 14.24 637.31 19.95 641.3 23.53C645.29 27.1 651.05 27.26 654.53 24C654.82 23.72 654.81 23.26 654.52 22.99Z" fill="#FFFFFF" fill-opacity="1.000000" fill-rule="nonzero"/>
		<rect id="atom" rx="-0.500000" width="19.337383" height="8.222057" transform="translate(742.740234 123.015625) rotate(-138.119064)" fill="#FFFFFF" fill-opacity="0"/>
		<path id="Vector" d="M727.61 109.39L741.72 122.05C742.02 122.32 742.49 122.28 742.73 121.96C745.59 118.15 744.81 112.43 740.82 108.86C736.83 105.28 731.07 105.13 727.59 108.39C727.3 108.66 727.31 109.13 727.61 109.39Z" fill="#FFFFFF" fill-opacity="1.000000" fill-rule="nonzero"/>
		<rect id="atom" rx="-0.500000" width="19.337391" height="8.222057" transform="translate(728.824219 35.621582) rotate(39.257843)" fill="#FFFFFF" fill-opacity="0"/>
		<path id="Vector" d="M743.53 47.55L728.85 35.55C728.55 35.3 728.08 35.36 727.85 35.69C725.17 39.63 726.21 45.3 730.36 48.69C734.51 52.08 740.27 51.97 743.6 48.56C743.88 48.27 743.84 47.8 743.53 47.55Z" fill="#FFFFFF" fill-opacity="1.000000" fill-rule="nonzero"/>
		<rect id="atom" rx="-0.500000" width="19.337391" height="8.222060" transform="translate(662.637695 75.849121) rotate(134.771683)" fill="#FFFFFF" fill-opacity="0"/>
		<path id="Vector" d="M648.29 89.29L661.65 75.83C661.93 75.55 661.92 75.08 661.61 74.83C657.94 71.78 652.2 72.26 648.42 76.07C644.65 79.87 644.21 85.62 647.29 89.26C647.55 89.57 648.01 89.58 648.29 89.29Z" fill="#FFFFFF" fill-opacity="1.000000" fill-rule="nonzero"/>
		<rect id="atom" rx="-0.500000" width="19.337374" height="9.138152" transform="translate(648.850586 38.402588) rotate(83.937759)" fill="#FFFFFF" fill-opacity="0"/>
		<path id="Ellipse 7" d="M645.45 58.66C642.67 58.95 639.93 54.66 639.34 49.08C638.75 43.5 640.52 38.73 643.31 38.43C646.09 38.14 648.83 42.42 649.42 48.01C650.01 53.59 648.24 58.36 645.45 58.66Z" fill="#FFFFFF" fill-opacity="1.000000" fill-rule="nonzero"/>
		<rect id="atom" rx="-0.500000" width="19.337389" height="9.138156" transform="translate(735.892578 89.549561) rotate(-96.062218)" fill="#FFFFFF" fill-opacity="0"/>
		<path id="Ellipse 7" d="M738.28 68.29C741.06 67.99 743.8 72.28 744.4 77.86C744.99 83.45 743.21 88.21 740.43 88.51C737.64 88.8 734.91 84.52 734.31 78.93C733.72 73.35 735.5 68.58 738.28 68.29Z" fill="#FFFFFF" fill-opacity="1.000000" fill-rule="nonzero"/>
		<rect id="atom" rx="-0.500000" width="19.337389" height="7.073940" transform="translate(693.279297 30.110596) rotate(-54.290577)" fill="#FFFFFF" fill-opacity="0"/>
		<path id="Ellipse 7" d="M707.92 15.45C709.73 16.75 708.54 21.5 705.27 26.06C701.99 30.62 697.86 33.26 696.05 31.96C694.24 30.66 695.43 25.91 698.71 21.35C701.99 16.79 706.11 14.15 707.92 15.45Z" fill="#FFFFFF" fill-opacity="1.000000" fill-rule="nonzero"/>
		<rect id="atom" rx="-0.500000" width="19.337372" height="7.073938" transform="translate(687.703125 73.666748) rotate(96.214798)" fill="#FFFFFF" fill-opacity="0"/>
		<path id="Ellipse 7" d="M680.98 92.94C678.77 92.7 677.46 87.98 678.07 82.4C678.68 76.81 680.97 72.48 683.18 72.72C685.4 72.97 686.71 77.69 686.1 83.27C685.49 88.85 683.2 93.18 680.98 92.94Z" fill="#FFFFFF" fill-opacity="1.000000" fill-rule="nonzero"/>
		<rect id="atom" rx="-0.500000" width="19.337381" height="8.283121" transform="translate(664.611328 39.353271) rotate(17.999701)" fill="#FFFFFF" fill-opacity="0"/>
		<path id="Subtract (Stroke)" d="M682.16 45.31C683.09 46.61 682.79 48.41 681.49 49.33C678.57 51.41 674.63 52.03 670.91 50.82C667.18 49.61 664.37 46.8 663.22 43.4C662.72 41.89 663.53 40.25 665.05 39.75C666.56 39.24 668.2 40.06 668.7 41.57C669.24 43.17 670.64 44.67 672.69 45.34C674.74 46 676.75 45.62 678.13 44.63C679.43 43.71 681.23 44.01 682.16 45.31Z" fill="#FFFFFF" fill-opacity="1.000000" fill-rule="evenodd"/>
		<rect id="atom" rx="-0.500000" width="19.337378" height="8.283137" transform="translate(721.841797 87.759766) rotate(-162.000244)" fill="#FFFFFF" fill-opacity="0"/>
		<path id="Subtract (Stroke)" d="M703.28 80.79C702.36 79.5 702.66 77.7 703.95 76.77C706.88 74.69 710.81 74.07 714.54 75.28C718.26 76.49 721.08 79.31 722.22 82.71C722.73 84.22 721.91 85.85 720.4 86.36C718.89 86.86 717.25 86.04 716.74 84.53C716.2 82.93 714.8 81.43 712.75 80.77C710.71 80.1 708.69 80.49 707.31 81.47C706.02 82.39 704.21 82.09 703.28 80.79Z" fill="#FFFFFF" fill-opacity="1.000000" fill-rule="evenodd"/>
		<rect id="atom" rx="-0.500000" width="19.337370" height="8.283123" transform="translate(745.940430 26.919434) rotate(-135.627472)" fill="#FFFFFF" fill-opacity="0"/>
		<path id="Subtract (Stroke)" d="M732.13 12.61C731.88 11.03 732.94 9.55 734.52 9.3C738.06 8.74 741.86 9.93 744.66 12.67C747.46 15.41 748.73 19.18 748.25 22.73C748.03 24.31 746.57 25.41 744.99 25.19C743.42 24.97 742.31 23.51 742.53 21.93C742.76 20.26 742.16 18.29 740.63 16.79C739.09 15.28 737.11 14.73 735.44 15C733.87 15.25 732.39 14.18 732.13 12.61Z" fill="#FFFFFF" fill-opacity="1.000000" fill-rule="evenodd"/>
		<rect id="atom" rx="-0.500000" width="19.337385" height="8.283123" transform="translate(668.981445 110.109619) rotate(8.575407)" fill="#FFFFFF" fill-opacity="0"/>
		<path id="Subtract (Stroke)" d="M687.34 113.02C688.47 114.15 688.47 115.97 687.34 117.1C684.8 119.63 681.02 120.88 677.15 120.3C673.27 119.72 670.03 117.4 668.35 114.24C667.6 112.83 668.14 111.08 669.55 110.34C670.96 109.59 672.71 110.13 673.46 111.54C674.25 113.03 675.88 114.28 678.01 114.6C680.14 114.92 682.06 114.21 683.26 113.02C684.39 111.89 686.22 111.89 687.34 113.02Z" fill="#FFFFFF" fill-opacity="1.000000" fill-rule="evenodd"/>
		<rect id="atom" rx="-0.500000" width="18.176991" height="8.099911" transform="translate(669.500977 13.450195) rotate(-33.850700)" fill="#FFFFFF" fill-opacity="0"/>
		<path id="Rectangle 6255" d="M670.36 14.97C669.61 13.85 669.9 12.34 671.03 11.58L682.89 3.62C684.01 2.87 685.53 3.17 686.28 4.29L688.63 7.79C689.38 8.91 689.08 10.43 687.96 11.18L676.09 19.14C674.97 19.89 673.46 19.59 672.7 18.47L670.36 14.97Z" fill="#FFFFFF" fill-opacity="1.000000" fill-rule="nonzero"/>
		<rect id="atom" rx="-0.500000" width="18.176977" height="8.099898" transform="translate(697.158203 99.858643) rotate(-12.315752)" fill="#FFFFFF" fill-opacity="0"/>
		<path id="Rectangle 6255" d="M697.18 101.74C696.89 100.42 697.72 99.12 699.04 98.83L713 95.78C714.32 95.5 715.62 96.33 715.91 97.65L716.81 101.77C717.1 103.09 716.26 104.39 714.94 104.68L700.98 107.72C699.66 108.01 698.36 107.18 698.07 105.86L697.18 101.74Z" fill="#FFFFFF" fill-opacity="1.000000" fill-rule="nonzero"/>
		<rect id="atom" rx="-0.500000" width="18.176996" height="8.099913" transform="translate(709.924805 64.696777) rotate(-131.732651)" fill="#FFFFFF" fill-opacity="0"/>
		<path id="Rectangle 6255" d="M711.24 62.57C710.24 63.46 708.69 63.38 707.79 62.37L698.28 51.7C697.38 50.7 697.47 49.15 698.48 48.25L701.62 45.45C702.63 44.55 704.17 44.64 705.07 45.65L714.59 56.31C715.48 57.32 715.39 58.86 714.39 59.76L711.24 62.57Z" fill="#FFFFFF" fill-opacity="1.000000" fill-rule="nonzero"/>
		<rect id="atom" rx="-0.500000" width="18.176958" height="8.099909" transform="translate(647.737305 99.865723) rotate(80.259499)" fill="#FFFFFF" fill-opacity="0"/>
		<path id="Rectangle 6255" d="M644.83 99.77C646.15 99.55 647.42 100.44 647.65 101.77L650.06 115.85C650.29 117.18 649.4 118.45 648.07 118.67L643.92 119.39C642.59 119.62 641.32 118.72 641.09 117.39L638.68 103.31C638.45 101.98 639.34 100.72 640.67 100.49L644.83 99.77Z" fill="#FFFFFF" fill-opacity="1.000000" fill-rule="nonzero"/>
		<rect id="pattern2" rx="-0.500000" width="125.000000" height="125.000000" transform="translate(756.500000 0.500000)" fill="#FFFFFF" fill-opacity="0"/>
		<rect id="atom" rx="-0.500000" width="19.337379" height="8.222054" transform="translate(766.389648 10.378662) rotate(41.880878)" fill="#FFFFFF" fill-opacity="0"/>
		<path id="Vector" d="M780.52 22.99L766.4 10.33C766.1 10.07 765.63 10.1 765.39 10.43C762.54 14.24 763.31 19.95 767.3 23.53C771.29 27.1 777.05 27.26 780.53 24C780.82 23.72 780.81 23.26 780.52 22.99Z" fill="#FFFFFF" fill-opacity="1.000000" fill-rule="nonzero"/>
		<rect id="atom" rx="-0.500000" width="19.337383" height="8.222057" transform="translate(868.740234 123.015625) rotate(-138.119064)" fill="#FFFFFF" fill-opacity="0"/>
		<path id="Vector" d="M853.61 109.39L867.72 122.05C868.02 122.32 868.49 122.28 868.73 121.96C871.59 118.15 870.81 112.43 866.82 108.86C862.83 105.28 857.07 105.13 853.59 108.39C853.3 108.66 853.31 109.13 853.61 109.39Z" fill="#FFFFFF" fill-opacity="1.000000" fill-rule="nonzero"/>
		<rect id="atom" rx="-0.500000" width="19.337391" height="8.222057" transform="translate(854.824219 35.621582) rotate(39.257843)" fill="#FFFFFF" fill-opacity="0"/>
		<path id="Vector" d="M869.53 47.55L854.85 35.55C854.55 35.3 854.08 35.36 853.85 35.69C851.17 39.63 852.21 45.3 856.36 48.69C860.51 52.08 866.27 51.97 869.6 48.56C869.88 48.27 869.84 47.8 869.53 47.55Z" fill="#FFFFFF" fill-opacity="1.000000" fill-rule="nonzero"/>
		<rect id="atom" rx="-0.500000" width="19.337391" height="8.222060" transform="translate(788.637695 75.849121) rotate(134.771683)" fill="#FFFFFF" fill-opacity="0"/>
		<path id="Vector" d="M774.29 89.29L787.65 75.83C787.93 75.55 787.92 75.08 787.61 74.83C783.94 71.78 778.2 72.26 774.42 76.07C770.65 79.87 770.21 85.62 773.29 89.26C773.55 89.57 774.01 89.58 774.29 89.29Z" fill="#FFFFFF" fill-opacity="1.000000" fill-rule="nonzero"/>
		<rect id="atom" rx="-0.500000" width="19.337374" height="9.138152" transform="translate(774.850586 38.402588) rotate(83.937759)" fill="#FFFFFF" fill-opacity="0"/>
		<path id="Ellipse 7" d="M771.45 58.66C768.67 58.95 765.93 54.66 765.34 49.08C764.75 43.5 766.52 38.73 769.31 38.43C772.09 38.14 774.83 42.42 775.42 48.01C776.01 53.59 774.24 58.36 771.45 58.66Z" fill="#FFFFFF" fill-opacity="1.000000" fill-rule="nonzero"/>
		<rect id="atom" rx="-0.500000" width="19.337389" height="9.138156" transform="translate(861.892578 89.549561) rotate(-96.062218)" fill="#FFFFFF" fill-opacity="0"/>
		<path id="Ellipse 7" d="M864.28 68.29C867.06 67.99 869.8 72.28 870.4 77.86C870.99 83.45 869.21 88.21 866.43 88.51C863.64 88.8 860.91 84.52 860.31 78.93C859.72 73.35 861.5 68.58 864.28 68.29Z" fill="#FFFFFF" fill-opacity="1.000000" fill-rule="nonzero"/>
		<rect id="atom" rx="-0.500000" width="19.337389" height="7.073940" transform="translate(819.279297 30.110596) rotate(-54.290577)" fill="#FFFFFF" fill-opacity="0"/>
		<path id="Ellipse 7" d="M833.92 15.45C835.73 16.75 834.54 21.5 831.27 26.06C827.99 30.62 823.86 33.26 822.05 31.96C820.24 30.66 821.43 25.91 824.71 21.35C827.99 16.79 832.11 14.15 833.92 15.45Z" fill="#FFFFFF" fill-opacity="1.000000" fill-rule="nonzero"/>
		<rect id="atom" rx="-0.500000" width="19.337372" height="7.073938" transform="translate(813.703125 73.666748) rotate(96.214798)" fill="#FFFFFF" fill-opacity="0"/>
		<path id="Ellipse 7" d="M806.98 92.94C804.77 92.7 803.46 87.98 804.07 82.4C804.68 76.81 806.97 72.48 809.18 72.72C811.4 72.97 812.71 77.69 812.1 83.27C811.49 88.85 809.2 93.18 806.98 92.94Z" fill="#FFFFFF" fill-opacity="1.000000" fill-rule="nonzero"/>
		<rect id="atom" rx="-0.500000" width="19.337381" height="8.283121" transform="translate(790.611328 39.353271) rotate(17.999701)" fill="#FFFFFF" fill-opacity="0"/>
		<path id="Subtract (Stroke)" d="M808.16 45.31C809.09 46.61 808.79 48.41 807.49 49.33C804.57 51.41 800.63 52.03 796.91 50.82C793.18 49.61 790.37 46.8 789.22 43.4C788.72 41.89 789.53 40.25 791.05 39.75C792.56 39.24 794.2 40.06 794.7 41.57C795.24 43.17 796.64 44.67 798.69 45.34C800.74 46 802.75 45.62 804.13 44.63C805.43 43.71 807.23 44.01 808.16 45.31Z" fill="#FFFFFF" fill-opacity="1.000000" fill-rule="evenodd"/>
		<rect id="atom" rx="-0.500000" width="19.337378" height="8.283137" transform="translate(847.841797 87.759766) rotate(-162.000244)" fill="#FFFFFF" fill-opacity="0"/>
		<path id="Subtract (Stroke)" d="M829.28 80.79C828.36 79.5 828.66 77.7 829.95 76.77C832.88 74.69 836.81 74.07 840.54 75.28C844.26 76.49 847.08 79.31 848.22 82.71C848.73 84.22 847.91 85.85 846.4 86.36C844.89 86.86 843.25 86.04 842.74 84.53C842.2 82.93 840.8 81.43 838.75 80.77C836.71 80.1 834.69 80.49 833.31 81.47C832.02 82.39 830.21 82.09 829.28 80.79Z" fill="#FFFFFF" fill-opacity="1.000000" fill-rule="evenodd"/>
		<rect id="atom" rx="-0.500000" width="19.337370" height="8.283123" transform="translate(871.940430 26.919434) rotate(-135.627472)" fill="#FFFFFF" fill-opacity="0"/>
		<path id="Subtract (Stroke)" d="M858.13 12.61C857.88 11.03 858.94 9.55 860.52 9.3C864.06 8.74 867.86 9.93 870.66 12.67C873.46 15.41 874.73 19.18 874.25 22.73C874.03 24.31 872.57 25.41 870.99 25.19C869.42 24.97 868.31 23.51 868.53 21.93C868.76 20.26 868.16 18.29 866.63 16.79C865.09 15.28 863.11 14.73 861.44 15C859.87 15.25 858.39 14.18 858.13 12.61Z" fill="#FFFFFF" fill-opacity="1.000000" fill-rule="evenodd"/>
		<rect id="atom" rx="-0.500000" width="19.337385" height="8.283123" transform="translate(794.981445 110.109619) rotate(8.575407)" fill="#FFFFFF" fill-opacity="0"/>
		<path id="Subtract (Stroke)" d="M813.34 113.02C814.47 114.15 814.47 115.97 813.34 117.1C810.8 119.63 807.02 120.88 803.15 120.3C799.27 119.72 796.03 117.4 794.35 114.24C793.6 112.83 794.14 111.08 795.55 110.34C796.96 109.59 798.71 110.13 799.46 111.54C800.25 113.03 801.88 114.28 804.01 114.6C806.14 114.92 808.06 114.21 809.26 113.02C810.39 111.89 812.22 111.89 813.34 113.02Z" fill="#FFFFFF" fill-opacity="1.000000" fill-rule="evenodd"/>
		<rect id="atom" rx="-0.500000" width="18.176991" height="8.099911" transform="translate(795.500977 13.450195) rotate(-33.850700)" fill="#FFFFFF" fill-opacity="0"/>
		<path id="Rectangle 6255" d="M796.36 14.97C795.61 13.85 795.9 12.34 797.03 11.58L808.89 3.62C810.01 2.87 811.53 3.17 812.28 4.29L814.63 7.79C815.38 8.91 815.08 10.43 813.96 11.18L802.09 19.14C800.97 19.89 799.46 19.59 798.7 18.47L796.36 14.97Z" fill="#FFFFFF" fill-opacity="1.000000" fill-rule="nonzero"/>
		<rect id="atom" rx="-0.500000" width="18.176977" height="8.099898" transform="translate(823.158203 99.858643) rotate(-12.315752)" fill="#FFFFFF" fill-opacity="0"/>
		<path id="Rectangle 6255" d="M823.18 101.74C822.89 100.42 823.72 99.12 825.04 98.83L839 95.78C840.32 95.5 841.62 96.33 841.91 97.65L842.81 101.77C843.1 103.09 842.26 104.39 840.94 104.68L826.98 107.72C825.66 108.01 824.36 107.18 824.07 105.86L823.18 101.74Z" fill="#FFFFFF" fill-opacity="1.000000" fill-rule="nonzero"/>
		<rect id="atom" rx="-0.500000" width="18.176996" height="8.099913" transform="translate(835.924805 64.696777) rotate(-131.732651)" fill="#FFFFFF" fill-opacity="0"/>
		<path id="Rectangle 6255" d="M837.24 62.57C836.24 63.46 834.69 63.38 833.79 62.37L824.28 51.7C823.38 50.7 823.47 49.15 824.48 48.25L827.62 45.45C828.63 44.55 830.17 44.64 831.07 45.65L840.59 56.31C841.48 57.32 841.39 58.86 840.39 59.76L837.24 62.57Z" fill="#FFFFFF" fill-opacity="1.000000" fill-rule="nonzero"/>
		<rect id="atom" rx="-0.500000" width="18.176958" height="8.099909" transform="translate(773.737305 99.865723) rotate(80.259499)" fill="#FFFFFF" fill-opacity="0"/>
		<path id="Rectangle 6255" d="M770.83 99.77C772.15 99.55 773.42 100.44 773.65 101.77L776.06 115.85C776.29 117.18 775.4 118.45 774.07 118.67L769.92 119.39C768.59 119.62 767.32 118.72 767.1 117.39L764.68 103.31C764.45 101.98 765.34 100.72 766.67 100.49L770.83 99.77Z" fill="#FFFFFF" fill-opacity="1.000000" fill-rule="nonzero"/>
		<rect id="pattern2" rx="-0.500000" width="125.000000" height="125.000000" transform="translate(882.500000 0.500000)" fill="#FFFFFF" fill-opacity="0"/>
		<rect id="atom" rx="-0.500000" width="19.337379" height="8.222054" transform="translate(892.389648 10.378662) rotate(41.880878)" fill="#FFFFFF" fill-opacity="0"/>
		<path id="Vector" d="M906.52 22.99L892.4 10.33C892.1 10.07 891.63 10.1 891.39 10.43C888.54 14.24 889.31 19.95 893.3 23.53C897.29 27.1 903.05 27.26 906.53 24C906.82 23.72 906.81 23.26 906.52 22.99Z" fill="#FFFFFF" fill-opacity="1.000000" fill-rule="nonzero"/>
		<rect id="atom" rx="-0.500000" width="19.337383" height="8.222057" transform="translate(994.740234 123.015625) rotate(-138.119064)" fill="#FFFFFF" fill-opacity="0"/>
		<path id="Vector" d="M979.61 109.39L993.72 122.05C994.02 122.32 994.49 122.28 994.73 121.96C997.59 118.15 996.81 112.43 992.82 108.86C988.83 105.28 983.07 105.13 979.59 108.39C979.3 108.66 979.31 109.13 979.61 109.39Z" fill="#FFFFFF" fill-opacity="1.000000" fill-rule="nonzero"/>
		<rect id="atom" rx="-0.500000" width="19.337391" height="8.222057" transform="translate(980.824219 35.621582) rotate(39.257843)" fill="#FFFFFF" fill-opacity="0"/>
		<path id="Vector" d="M995.53 47.55L980.85 35.55C980.55 35.3 980.08 35.36 979.85 35.69C977.17 39.63 978.21 45.3 982.36 48.69C986.51 52.08 992.27 51.97 995.6 48.56C995.88 48.27 995.84 47.8 995.53 47.55Z" fill="#FFFFFF" fill-opacity="1.000000" fill-rule="nonzero"/>
		<rect id="atom" rx="-0.500000" width="19.337391" height="8.222060" transform="translate(914.637695 75.849121) rotate(134.771683)" fill="#FFFFFF" fill-opacity="0"/>
		<path id="Vector" d="M900.29 89.29L913.65 75.83C913.93 75.55 913.92 75.08 913.61 74.83C909.94 71.78 904.2 72.26 900.42 76.07C896.65 79.87 896.21 85.62 899.29 89.26C899.55 89.57 900.01 89.58 900.29 89.29Z" fill="#FFFFFF" fill-opacity="1.000000" fill-rule="nonzero"/>
		<rect id="atom" rx="-0.500000" width="19.337374" height="9.138152" transform="translate(900.850586 38.402588) rotate(83.937759)" fill="#FFFFFF" fill-opacity="0"/>
		<path id="Ellipse 7" d="M897.45 58.66C894.67 58.95 891.93 54.66 891.34 49.08C890.75 43.5 892.52 38.73 895.31 38.43C898.09 38.14 900.83 42.42 901.42 48.01C902.01 53.59 900.24 58.36 897.45 58.66Z" fill="#FFFFFF" fill-opacity="1.000000" fill-rule="nonzero"/>
		<rect id="atom" rx="-0.500000" width="19.337389" height="9.138156" transform="translate(987.892578 89.549561) rotate(-96.062218)" fill="#FFFFFF" fill-opacity="0"/>
		<path id="Ellipse 7" d="M990.28 68.29C993.06 67.99 995.8 72.28 996.4 77.86C996.99 83.45 995.21 88.21 992.43 88.51C989.64 88.8 986.91 84.52 986.31 78.93C985.72 73.35 987.5 68.58 990.28 68.29Z" fill="#FFFFFF" fill-opacity="1.000000" fill-rule="nonzero"/>
		<rect id="atom" rx="-0.500000" width="19.337389" height="7.073940" transform="translate(945.279297 30.110596) rotate(-54.290577)" fill="#FFFFFF" fill-opacity="0"/>
		<path id="Ellipse 7" d="M959.92 15.45C961.73 16.75 960.54 21.5 957.27 26.06C953.99 30.62 949.86 33.26 948.05 31.96C946.24 30.66 947.43 25.91 950.71 21.35C953.99 16.79 958.11 14.15 959.92 15.45Z" fill="#FFFFFF" fill-opacity="1.000000" fill-rule="nonzero"/>
		<rect id="atom" rx="-0.500000" width="19.337372" height="7.073938" transform="translate(939.703125 73.666748) rotate(96.214798)" fill="#FFFFFF" fill-opacity="0"/>
		<path id="Ellipse 7" d="M932.98 92.94C930.77 92.7 929.46 87.98 930.07 82.4C930.68 76.81 932.97 72.48 935.18 72.72C937.4 72.97 938.71 77.69 938.1 83.27C937.49 88.85 935.2 93.18 932.98 92.94Z" fill="#FFFFFF" fill-opacity="1.000000" fill-rule="nonzero"/>
		<rect id="atom" rx="-0.500000" width="19.337381" height="8.283121" transform="translate(916.611328 39.353271) rotate(17.999701)" fill="#FFFFFF" fill-opacity="0"/>
		<path id="Subtract (Stroke)" d="M934.16 45.31C935.09 46.61 934.79 48.41 933.49 49.33C930.57 51.41 926.63 52.03 922.91 50.82C919.18 49.61 916.37 46.8 915.22 43.4C914.72 41.89 915.53 40.25 917.05 39.75C918.56 39.24 920.2 40.06 920.7 41.57C921.24 43.17 922.64 44.67 924.69 45.34C926.74 46 928.75 45.62 930.13 44.63C931.43 43.71 933.23 44.01 934.16 45.31Z" fill="#FFFFFF" fill-opacity="1.000000" fill-rule="evenodd"/>
		<rect id="atom" rx="-0.500000" width="19.337378" height="8.283137" transform="translate(973.841797 87.759766) rotate(-162.000244)" fill="#FFFFFF" fill-opacity="0"/>
		<path id="Subtract (Stroke)" d="M955.28 80.79C954.36 79.5 954.66 77.7 955.95 76.77C958.88 74.69 962.81 74.07 966.54 75.28C970.26 76.49 973.08 79.31 974.22 82.71C974.73 84.22 973.91 85.85 972.4 86.36C970.89 86.86 969.25 86.04 968.74 84.53C968.2 82.93 966.8 81.43 964.75 80.77C962.71 80.1 960.69 80.49 959.31 81.47C958.02 82.39 956.21 82.09 955.28 80.79Z" fill="#FFFFFF" fill-opacity="1.000000" fill-rule="evenodd"/>
		<rect id="atom" rx="-0.500000" width="19.337370" height="8.283123" transform="translate(997.940430 26.919434) rotate(-135.627472)" fill="#FFFFFF" fill-opacity="0"/>
		<path id="Subtract (Stroke)" d="M984.13 12.61C983.88 11.03 984.94 9.55 986.52 9.3C990.06 8.74 993.86 9.93 996.66 12.67C999.46 15.41 1000.74 19.18 1000.25 22.73C1000.03 24.31 998.57 25.41 996.99 25.19C995.42 24.97 994.31 23.51 994.53 21.93C994.76 20.26 994.16 18.29 992.63 16.79C991.09 15.28 989.11 14.73 987.44 15C985.87 15.25 984.39 14.18 984.13 12.61Z" fill="#FFFFFF" fill-opacity="1.000000" fill-rule="evenodd"/>
		<rect id="atom" rx="-0.500000" width="19.337385" height="8.283123" transform="translate(920.981445 110.109619) rotate(8.575407)" fill="#FFFFFF" fill-opacity="0"/>
		<path id="Subtract (Stroke)" d="M939.34 113.02C940.47 114.15 940.47 115.97 939.34 117.1C936.8 119.63 933.02 120.88 929.15 120.3C925.27 119.72 922.03 117.4 920.35 114.24C919.6 112.83 920.14 111.08 921.55 110.34C922.96 109.59 924.71 110.13 925.46 111.54C926.25 113.03 927.88 114.28 930.01 114.6C932.14 114.92 934.06 114.21 935.26 113.02C936.39 111.89 938.22 111.89 939.34 113.02Z" fill="#FFFFFF" fill-opacity="1.000000" fill-rule="evenodd"/>
		<rect id="atom" rx="-0.500000" width="18.176991" height="8.099911" transform="translate(921.500977 13.450195) rotate(-33.850700)" fill="#FFFFFF" fill-opacity="0"/>
		<path id="Rectangle 6255" d="M922.36 14.97C921.61 13.85 921.9 12.34 923.03 11.58L934.89 3.62C936.01 2.87 937.53 3.17 938.28 4.29L940.63 7.79C941.38 8.91 941.08 10.43 939.96 11.18L928.09 19.14C926.97 19.89 925.46 19.59 924.7 18.47L922.36 14.97Z" fill="#FFFFFF" fill-opacity="1.000000" fill-rule="nonzero"/>
		<rect id="atom" rx="-0.500000" width="18.176977" height="8.099898" transform="translate(949.158203 99.858643) rotate(-12.315752)" fill="#FFFFFF" fill-opacity="0"/>
		<path id="Rectangle 6255" d="M949.18 101.74C948.89 100.42 949.72 99.12 951.04 98.83L965 95.78C966.32 95.5 967.62 96.33 967.91 97.65L968.81 101.77C969.1 103.09 968.26 104.39 966.94 104.68L952.98 107.72C951.66 108.01 950.36 107.18 950.07 105.86L949.18 101.74Z" fill="#FFFFFF" fill-opacity="1.000000" fill-rule="nonzero"/>
		<rect id="atom" rx="-0.500000" width="18.176996" height="8.099913" transform="translate(961.924805 64.696777) rotate(-131.732651)" fill="#FFFFFF" fill-opacity="0"/>
		<path id="Rectangle 6255" d="M963.24 62.57C962.24 63.46 960.69 63.38 959.79 62.37L950.28 51.7C949.38 50.7 949.47 49.15 950.48 48.25L953.62 45.45C954.63 44.55 956.17 44.64 957.07 45.65L966.59 56.31C967.48 57.32 967.39 58.86 966.39 59.76L963.24 62.57Z" fill="#FFFFFF" fill-opacity="1.000000" fill-rule="nonzero"/>
		<rect id="atom" rx="-0.500000" width="18.176958" height="8.099909" transform="translate(899.737305 99.865723) rotate(80.259499)" fill="#FFFFFF" fill-opacity="0"/>
		<path id="Rectangle 6255" d="M896.83 99.77C898.15 99.55 899.42 100.44 899.65 101.77L902.06 115.85C902.29 117.18 901.4 118.45 900.07 118.67L895.92 119.39C894.59 119.62 893.32 118.72 893.1 117.39L890.68 103.31C890.45 101.98 891.34 100.72 892.67 100.49L896.83 99.77Z" fill="#FFFFFF" fill-opacity="1.000000" fill-rule="nonzero"/>
		<rect id="pattern2" rx="-0.500000" width="125.000000" height="125.000000" transform="translate(1008.500000 0.500000)" fill="#FFFFFF" fill-opacity="0"/>
		<rect id="atom" rx="-0.500000" width="19.337379" height="8.222054" transform="translate(1018.389648 10.378662) rotate(41.880878)" fill="#FFFFFF" fill-opacity="0"/>
		<path id="Vector" d="M1032.52 22.99L1018.4 10.33C1018.11 10.07 1017.64 10.1 1017.4 10.43C1014.54 14.24 1015.32 19.95 1019.3 23.53C1023.29 27.1 1029.06 27.26 1032.54 24C1032.82 23.72 1032.81 23.26 1032.52 22.99Z" fill="#FFFFFF" fill-opacity="1.000000" fill-rule="nonzero"/>
		<rect id="atom" rx="-0.500000" width="19.337383" height="8.222057" transform="translate(1120.740234 123.015625) rotate(-138.119064)" fill="#FFFFFF" fill-opacity="0"/>
		<path id="Vector" d="M1105.61 109.39L1119.73 122.05C1120.02 122.32 1120.49 122.28 1120.73 121.96C1123.59 118.15 1122.81 112.43 1118.82 108.86C1114.84 105.28 1109.06 105.13 1105.59 108.39C1105.3 108.66 1105.31 109.13 1105.61 109.39Z" fill="#FFFFFF" fill-opacity="1.000000" fill-rule="nonzero"/>
		<rect id="atom" rx="-0.500000" width="19.337391" height="8.222057" transform="translate(1106.824219 35.621582) rotate(39.257843)" fill="#FFFFFF" fill-opacity="0"/>
		<path id="Vector" d="M1121.54 47.55L1106.86 35.55C1106.55 35.3 1106.07 35.36 1105.86 35.69C1103.18 39.63 1104.21 45.3 1108.36 48.69C1112.51 52.08 1118.27 51.97 1121.6 48.56C1121.88 48.27 1121.85 47.8 1121.54 47.55Z" fill="#FFFFFF" fill-opacity="1.000000" fill-rule="nonzero"/>
		<rect id="atom" rx="-0.500000" width="19.337391" height="8.222060" transform="translate(1040.637695 75.849121) rotate(134.771683)" fill="#FFFFFF" fill-opacity="0"/>
		<path id="Vector" d="M1026.3 89.29L1039.65 75.83C1039.93 75.55 1039.92 75.08 1039.61 74.83C1035.94 71.78 1030.19 72.26 1026.43 76.07C1022.66 79.87 1022.21 85.62 1025.29 89.26C1025.55 89.57 1026.02 89.58 1026.3 89.29Z" fill="#FFFFFF" fill-opacity="1.000000" fill-rule="nonzero"/>
		<rect id="atom" rx="-0.500000" width="19.337374" height="9.138152" transform="translate(1026.850586 38.402588) rotate(83.937759)" fill="#FFFFFF" fill-opacity="0"/>
		<path id="Ellipse 7" d="M1023.46 58.66C1020.67 58.95 1017.94 54.66 1017.34 49.08C1016.75 43.5 1018.53 38.73 1021.31 38.43C1024.09 38.14 1026.82 42.42 1027.42 48.01C1028.02 53.59 1026.24 58.36 1023.46 58.66Z" fill="#FFFFFF" fill-opacity="1.000000" fill-rule="nonzero"/>
		<rect id="atom" rx="-0.500000" width="19.337389" height="9.138156" transform="translate(1113.892578 89.549561) rotate(-96.062218)" fill="#FFFFFF" fill-opacity="0"/>
		<path id="Ellipse 7" d="M1116.29 68.29C1119.06 67.99 1121.81 72.28 1122.4 77.86C1122.99 83.45 1121.22 88.21 1118.43 88.51C1115.65 88.8 1112.91 84.52 1112.31 78.93C1111.73 73.35 1113.5 68.58 1116.29 68.29Z" fill="#FFFFFF" fill-opacity="1.000000" fill-rule="nonzero"/>
		<rect id="atom" rx="-0.500000" width="19.337389" height="7.073940" transform="translate(1071.279297 30.110596) rotate(-54.290577)" fill="#FFFFFF" fill-opacity="0"/>
		<path id="Ellipse 7" d="M1085.93 15.45C1087.74 16.75 1086.55 21.5 1083.27 26.06C1079.99 30.62 1075.87 33.26 1074.06 31.96C1072.25 30.66 1073.43 25.91 1076.71 21.35C1079.99 16.79 1084.12 14.15 1085.93 15.45Z" fill="#FFFFFF" fill-opacity="1.000000" fill-rule="nonzero"/>
		<rect id="atom" rx="-0.500000" width="19.337372" height="7.073938" transform="translate(1065.703125 73.666748) rotate(96.214798)" fill="#FFFFFF" fill-opacity="0"/>
		<path id="Ellipse 7" d="M1058.99 92.94C1056.77 92.7 1055.47 87.98 1056.07 82.4C1056.68 76.81 1058.97 72.48 1061.18 72.72C1063.41 72.97 1064.71 77.69 1064.1 83.27C1063.49 88.85 1061.21 93.18 1058.99 92.94Z" fill="#FFFFFF" fill-opacity="1.000000" fill-rule="nonzero"/>
		<rect id="atom" rx="-0.500000" width="19.337381" height="8.283121" transform="translate(1042.611328 39.353271) rotate(17.999701)" fill="#FFFFFF" fill-opacity="0"/>
		<path id="Subtract (Stroke)" d="M1060.17 45.31C1061.09 46.61 1060.79 48.41 1059.49 49.33C1056.56 51.41 1052.64 52.03 1048.91 50.82C1045.18 49.61 1042.37 46.8 1041.23 43.4C1040.72 41.89 1041.54 40.25 1043.05 39.75C1044.56 39.24 1046.19 40.06 1046.71 41.57C1047.25 43.17 1048.65 44.67 1050.69 45.34C1052.74 46 1054.76 45.62 1056.14 44.63C1057.43 43.71 1059.24 44.01 1060.17 45.31Z" fill="#FFFFFF" fill-opacity="1.000000" fill-rule="evenodd"/>
		<rect id="atom" rx="-0.500000" width="19.337378" height="8.283137" transform="translate(1099.841797 87.759766) rotate(-162.000244)" fill="#FFFFFF" fill-opacity="0"/>
		<path id="Subtract (Stroke)" d="M1081.29 80.79C1080.36 79.5 1080.66 77.7 1081.96 76.77C1084.88 74.69 1088.81 74.07 1092.54 75.28C1096.26 76.49 1099.07 79.31 1100.22 82.71C1100.73 84.22 1099.92 85.85 1098.4 86.36C1096.89 86.86 1095.25 86.04 1094.75 84.53C1094.21 82.93 1092.8 81.43 1090.76 80.77C1088.71 80.1 1086.69 80.49 1085.31 81.47C1084.02 82.39 1082.22 82.09 1081.29 80.79Z" fill="#FFFFFF" fill-opacity="1.000000" fill-rule="evenodd"/>
		<rect id="atom" rx="-0.500000" width="19.337370" height="8.283123" transform="translate(1123.940430 26.919434) rotate(-135.627472)" fill="#FFFFFF" fill-opacity="0"/>
		<path id="Subtract (Stroke)" d="M1110.14 12.61C1109.88 11.03 1110.94 9.55 1112.52 9.3C1116.06 8.74 1119.86 9.93 1122.66 12.67C1125.46 15.41 1126.74 19.18 1126.25 22.73C1126.03 24.31 1124.57 25.41 1123 25.19C1121.42 24.97 1120.31 23.51 1120.53 21.93C1120.76 20.26 1120.17 18.29 1118.63 16.79C1117.09 15.28 1115.12 14.73 1113.44 15C1111.87 15.25 1110.39 14.18 1110.14 12.61Z" fill="#FFFFFF" fill-opacity="1.000000" fill-rule="evenodd"/>
		<rect id="atom" rx="-0.500000" width="19.337385" height="8.283123" transform="translate(1046.981445 110.109619) rotate(8.575407)" fill="#FFFFFF" fill-opacity="0"/>
		<path id="Subtract (Stroke)" d="M1065.35 113.02C1066.48 114.15 1066.47 115.97 1065.35 117.1C1062.8 119.63 1059.03 120.88 1055.15 120.3C1051.28 119.72 1048.04 117.4 1046.36 114.24C1045.61 112.83 1046.15 111.08 1047.55 110.34C1048.96 109.59 1050.71 110.13 1051.46 111.54C1052.25 113.03 1053.88 114.28 1056.01 114.6C1058.14 114.92 1060.06 114.21 1061.26 113.02C1062.39 111.89 1064.22 111.89 1065.35 113.02Z" fill="#FFFFFF" fill-opacity="1.000000" fill-rule="evenodd"/>
		<rect id="atom" rx="-0.500000" width="18.176991" height="8.099911" transform="translate(1047.500977 13.450195) rotate(-33.850700)" fill="#FFFFFF" fill-opacity="0"/>
		<path id="Rectangle 6255" d="M1048.36 14.97C1047.61 13.85 1047.91 12.34 1049.03 11.58L1060.9 3.62C1062.02 2.87 1063.54 3.17 1064.29 4.29L1066.64 7.79C1067.39 8.91 1067.09 10.43 1065.97 11.18L1054.1 19.14C1052.98 19.89 1051.46 19.59 1050.71 18.47L1048.36 14.97Z" fill="#FFFFFF" fill-opacity="1.000000" fill-rule="nonzero"/>
		<rect id="atom" rx="-0.500000" width="18.176977" height="8.099898" transform="translate(1075.158203 99.858643) rotate(-12.315752)" fill="#FFFFFF" fill-opacity="0"/>
		<path id="Rectangle 6255" d="M1075.18 101.74C1074.89 100.42 1075.73 99.12 1077.04 98.83L1091.01 95.78C1092.32 95.5 1093.63 96.33 1093.92 97.65L1094.81 101.77C1095.1 103.09 1094.27 104.39 1092.94 104.68L1078.99 107.72C1077.67 108.01 1076.37 107.18 1076.07 105.86L1075.18 101.74Z" fill="#FFFFFF" fill-opacity="1.000000" fill-rule="nonzero"/>
		<rect id="atom" rx="-0.500000" width="18.176996" height="8.099913" transform="translate(1087.924805 64.696777) rotate(-131.732651)" fill="#FFFFFF" fill-opacity="0"/>
		<path id="Rectangle 6255" d="M1089.25 62.57C1088.24 63.46 1086.69 63.38 1085.8 62.37L1076.29 51.7C1075.39 50.7 1075.48 49.15 1076.48 48.25L1079.63 45.45C1080.63 44.55 1082.18 44.64 1083.07 45.65L1092.59 56.31C1093.49 57.32 1093.4 58.86 1092.39 59.76L1089.25 62.57Z" fill="#FFFFFF" fill-opacity="1.000000" fill-rule="nonzero"/>
		<rect id="atom" rx="-0.500000" width="18.176958" height="8.099909" transform="translate(1025.737305 99.865723) rotate(80.259499)" fill="#FFFFFF" fill-opacity="0"/>
		<path id="Rectangle 6255" d="M1022.83 99.77C1024.16 99.55 1025.42 100.44 1025.65 101.77L1028.06 115.85C1028.3 117.18 1027.4 118.45 1026.06 118.67L1021.92 119.39C1020.59 119.62 1019.33 118.72 1019.1 117.39L1016.68 103.31C1016.45 101.98 1017.35 100.72 1018.68 100.49L1022.83 99.77Z" fill="#FFFFFF" fill-opacity="1.000000" fill-rule="nonzero"/>
		<rect id="pattern2" rx="-0.500000" width="125.000000" height="125.000000" transform="translate(1134.500000 0.500000)" fill="#FFFFFF" fill-opacity="0"/>
		<rect id="atom" rx="-0.500000" width="19.337379" height="8.222054" transform="translate(1144.389648 10.378662) rotate(41.880878)" fill="#FFFFFF" fill-opacity="0"/>
		<path id="Vector" d="M1158.52 22.99L1144.4 10.33C1144.11 10.07 1143.64 10.1 1143.4 10.43C1140.54 14.24 1141.31 19.95 1145.3 23.53C1149.29 27.1 1155.06 27.26 1158.54 24C1158.82 23.72 1158.81 23.26 1158.52 22.99Z" fill="#FFFFFF" fill-opacity="1.000000" fill-rule="nonzero"/>
		<rect id="atom" rx="-0.500000" width="19.337383" height="8.222057" transform="translate(1246.740234 123.015625) rotate(-138.119064)" fill="#FFFFFF" fill-opacity="0"/>
		<path id="Vector" d="M1231.61 109.39L1245.73 122.05C1246.02 122.32 1246.49 122.28 1246.73 121.96C1249.59 118.15 1248.81 112.43 1244.82 108.86C1240.84 105.28 1235.06 105.13 1231.59 108.39C1231.3 108.66 1231.31 109.13 1231.61 109.39Z" fill="#FFFFFF" fill-opacity="1.000000" fill-rule="nonzero"/>
		<rect id="atom" rx="-0.500000" width="19.337391" height="8.222057" transform="translate(1232.824219 35.621582) rotate(39.257843)" fill="#FFFFFF" fill-opacity="0"/>
		<path id="Vector" d="M1247.54 47.55L1232.86 35.55C1232.55 35.3 1232.07 35.36 1231.86 35.69C1229.18 39.63 1230.21 45.3 1234.36 48.69C1238.51 52.08 1244.27 51.97 1247.6 48.56C1247.88 48.27 1247.85 47.8 1247.54 47.55Z" fill="#FFFFFF" fill-opacity="1.000000" fill-rule="nonzero"/>
		<rect id="atom" rx="-0.500000" width="19.337391" height="8.222060" transform="translate(1166.637695 75.849121) rotate(134.771683)" fill="#FFFFFF" fill-opacity="0"/>
		<path id="Vector" d="M1152.3 89.29L1165.65 75.83C1165.93 75.55 1165.92 75.08 1165.61 74.83C1161.94 71.78 1156.19 72.26 1152.43 76.07C1148.66 79.87 1148.21 85.62 1151.29 89.26C1151.55 89.57 1152.02 89.58 1152.3 89.29Z" fill="#FFFFFF" fill-opacity="1.000000" fill-rule="nonzero"/>
		<rect id="atom" rx="-0.500000" width="19.337374" height="9.138152" transform="translate(1152.850586 38.402588) rotate(83.937759)" fill="#FFFFFF" fill-opacity="0"/>
		<path id="Ellipse 7" d="M1149.46 58.66C1146.67 58.95 1143.93 54.66 1143.34 49.08C1142.75 43.5 1144.53 38.73 1147.31 38.43C1150.09 38.14 1152.82 42.42 1153.42 48.01C1154.02 53.59 1152.24 58.36 1149.46 58.66Z" fill="#FFFFFF" fill-opacity="1.000000" fill-rule="nonzero"/>
		<rect id="atom" rx="-0.500000" width="19.337389" height="9.138156" transform="translate(1239.892578 89.549561) rotate(-96.062218)" fill="#FFFFFF" fill-opacity="0"/>
		<path id="Ellipse 7" d="M1242.29 68.29C1245.06 67.99 1247.81 72.28 1248.4 77.86C1248.99 83.45 1247.22 88.21 1244.43 88.51C1241.65 88.8 1238.91 84.52 1238.31 78.93C1237.73 73.35 1239.5 68.58 1242.29 68.29Z" fill="#FFFFFF" fill-opacity="1.000000" fill-rule="nonzero"/>
		<rect id="atom" rx="-0.500000" width="19.337389" height="7.073940" transform="translate(1197.279297 30.110596) rotate(-54.290577)" fill="#FFFFFF" fill-opacity="0"/>
		<path id="Ellipse 7" d="M1211.93 15.45C1213.74 16.75 1212.55 21.5 1209.27 26.06C1205.99 30.62 1201.87 33.26 1200.06 31.96C1198.25 30.66 1199.43 25.91 1202.71 21.35C1205.99 16.79 1210.12 14.15 1211.93 15.45Z" fill="#FFFFFF" fill-opacity="1.000000" fill-rule="nonzero"/>
		<rect id="atom" rx="-0.500000" width="19.337372" height="7.073938" transform="translate(1191.703125 73.666748) rotate(96.214798)" fill="#FFFFFF" fill-opacity="0"/>
		<path id="Ellipse 7" d="M1184.99 92.94C1182.77 92.7 1181.47 87.98 1182.07 82.4C1182.68 76.81 1184.97 72.48 1187.18 72.72C1189.41 72.97 1190.71 77.69 1190.1 83.27C1189.49 88.85 1187.21 93.18 1184.99 92.94Z" fill="#FFFFFF" fill-opacity="1.000000" fill-rule="nonzero"/>
		<rect id="atom" rx="-0.500000" width="19.337381" height="8.283121" transform="translate(1168.611328 39.353271) rotate(17.999701)" fill="#FFFFFF" fill-opacity="0"/>
		<path id="Subtract (Stroke)" d="M1186.17 45.31C1187.09 46.61 1186.79 48.41 1185.49 49.33C1182.56 51.41 1178.64 52.03 1174.91 50.82C1171.18 49.61 1168.37 46.8 1167.23 43.4C1166.72 41.89 1167.54 40.25 1169.05 39.75C1170.56 39.24 1172.19 40.06 1172.71 41.57C1173.25 43.17 1174.65 44.67 1176.69 45.34C1178.74 46 1180.76 45.62 1182.14 44.63C1183.43 43.71 1185.24 44.01 1186.17 45.31Z" fill="#FFFFFF" fill-opacity="1.000000" fill-rule="evenodd"/>
		<rect id="atom" rx="-0.500000" width="19.337378" height="8.283137" transform="translate(1225.841797 87.759766) rotate(-162.000244)" fill="#FFFFFF" fill-opacity="0"/>
		<path id="Subtract (Stroke)" d="M1207.29 80.79C1206.36 79.5 1206.66 77.7 1207.96 76.77C1210.88 74.69 1214.81 74.07 1218.54 75.28C1222.26 76.49 1225.07 79.31 1226.22 82.71C1226.73 84.22 1225.92 85.85 1224.4 86.36C1222.89 86.86 1221.25 86.04 1220.75 84.53C1220.21 82.93 1218.8 81.43 1216.76 80.77C1214.71 80.1 1212.69 80.49 1211.31 81.47C1210.02 82.39 1208.22 82.09 1207.29 80.79Z" fill="#FFFFFF" fill-opacity="1.000000" fill-rule="evenodd"/>
		<rect id="atom" rx="-0.500000" width="19.337370" height="8.283123" transform="translate(1249.940430 26.919434) rotate(-135.627472)" fill="#FFFFFF" fill-opacity="0"/>
		<path id="Subtract (Stroke)" d="M1236.14 12.61C1235.88 11.03 1236.94 9.55 1238.52 9.3C1242.06 8.74 1245.86 9.93 1248.66 12.67C1251.46 15.41 1252.74 19.18 1252.25 22.73C1252.03 24.31 1250.57 25.41 1249 25.19C1247.42 24.97 1246.31 23.51 1246.53 21.93C1246.76 20.26 1246.17 18.29 1244.63 16.79C1243.09 15.28 1241.12 14.73 1239.44 15C1237.87 15.25 1236.39 14.18 1236.14 12.61Z" fill="#FFFFFF" fill-opacity="1.000000" fill-rule="evenodd"/>
		<rect id="atom" rx="-0.500000" width="19.337385" height="8.283123" transform="translate(1172.981445 110.109619) rotate(8.575407)" fill="#FFFFFF" fill-opacity="0"/>
		<path id="Subtract (Stroke)" d="M1191.35 113.02C1192.48 114.15 1192.47 115.97 1191.35 117.1C1188.8 119.63 1185.03 120.88 1181.15 120.3C1177.28 119.72 1174.04 117.4 1172.36 114.24C1171.61 112.83 1172.15 111.08 1173.55 110.34C1174.96 109.59 1176.71 110.13 1177.46 111.54C1178.25 113.03 1179.88 114.28 1182.01 114.6C1184.14 114.92 1186.06 114.21 1187.26 113.02C1188.39 111.89 1190.22 111.89 1191.35 113.02Z" fill="#FFFFFF" fill-opacity="1.000000" fill-rule="evenodd"/>
		<rect id="atom" rx="-0.500000" width="18.176991" height="8.099911" transform="translate(1173.500977 13.450195) rotate(-33.850700)" fill="#FFFFFF" fill-opacity="0"/>
		<path id="Rectangle 6255" d="M1174.36 14.97C1173.61 13.85 1173.91 12.34 1175.03 11.58L1186.9 3.62C1188.02 2.87 1189.54 3.17 1190.29 4.29L1192.64 7.79C1193.39 8.91 1193.09 10.43 1191.97 11.18L1180.1 19.14C1178.98 19.89 1177.46 19.59 1176.71 18.47L1174.36 14.97Z" fill="#FFFFFF" fill-opacity="1.000000" fill-rule="nonzero"/>
		<rect id="atom" rx="-0.500000" width="18.176977" height="8.099898" transform="translate(1201.158203 99.858643) rotate(-12.315752)" fill="#FFFFFF" fill-opacity="0"/>
		<path id="Rectangle 6255" d="M1201.18 101.74C1200.89 100.42 1201.73 99.12 1203.04 98.83L1217.01 95.78C1218.32 95.5 1219.63 96.33 1219.92 97.65L1220.81 101.77C1221.1 103.09 1220.27 104.39 1218.94 104.68L1204.99 107.72C1203.67 108.01 1202.37 107.18 1202.07 105.86L1201.18 101.74Z" fill="#FFFFFF" fill-opacity="1.000000" fill-rule="nonzero"/>
		<rect id="atom" rx="-0.500000" width="18.176996" height="8.099913" transform="translate(1213.924805 64.696777) rotate(-131.732651)" fill="#FFFFFF" fill-opacity="0"/>
		<path id="Rectangle 6255" d="M1215.25 62.57C1214.24 63.46 1212.69 63.38 1211.8 62.37L1202.29 51.7C1201.39 50.7 1201.48 49.15 1202.48 48.25L1205.63 45.45C1206.63 44.55 1208.18 44.64 1209.07 45.65L1218.59 56.31C1219.49 57.32 1219.4 58.86 1218.39 59.76L1215.25 62.57Z" fill="#FFFFFF" fill-opacity="1.000000" fill-rule="nonzero"/>
		<rect id="atom" rx="-0.500000" width="18.176958" height="8.099909" transform="translate(1151.737305 99.865723) rotate(80.259499)" fill="#FFFFFF" fill-opacity="0"/>
		<path id="Rectangle 6255" d="M1148.82 99.77C1150.16 99.55 1151.42 100.44 1151.65 101.77L1154.06 115.85C1154.3 117.18 1153.4 118.45 1152.06 118.67L1147.92 119.39C1146.59 119.62 1145.32 118.72 1145.1 117.39L1142.68 103.31C1142.44 101.98 1143.35 100.72 1144.68 100.49L1148.82 99.77Z" fill="#FFFFFF" fill-opacity="1.000000" fill-rule="nonzero"/>
		<rect id="pattern2" rx="-0.500000" width="125.000000" height="125.000000" transform="translate(1260.500000 0.500000)" fill="#FFFFFF" fill-opacity="0"/>
		<rect id="atom" rx="-0.500000" width="19.337379" height="8.222054" transform="translate(1270.389648 10.378662) rotate(41.880878)" fill="#FFFFFF" fill-opacity="0"/>
		<path id="Vector" d="M1284.52 22.99L1270.4 10.33C1270.11 10.07 1269.64 10.1 1269.4 10.43C1266.54 14.24 1267.31 19.95 1271.3 23.53C1275.29 27.1 1281.06 27.26 1284.54 24C1284.82 23.72 1284.81 23.26 1284.52 22.99Z" fill="#FFFFFF" fill-opacity="1.000000" fill-rule="nonzero"/>
		<rect id="atom" rx="-0.500000" width="19.337383" height="8.222057" transform="translate(1372.740234 123.015625) rotate(-138.119064)" fill="#FFFFFF" fill-opacity="0"/>
		<path id="Vector" d="M1357.61 109.39L1371.73 122.05C1372.02 122.32 1372.49 122.28 1372.73 121.96C1375.59 118.15 1374.81 112.43 1370.83 108.86C1366.84 105.28 1361.07 105.13 1357.59 108.39C1357.3 108.66 1357.31 109.13 1357.61 109.39Z" fill="#FFFFFF" fill-opacity="1.000000" fill-rule="nonzero"/>
		<rect id="atom" rx="-0.500000" width="19.337391" height="8.222057" transform="translate(1358.824219 35.621582) rotate(39.257843)" fill="#FFFFFF" fill-opacity="0"/>
		<path id="Vector" d="M1373.54 47.55L1358.86 35.55C1358.55 35.3 1358.08 35.36 1357.86 35.69C1355.18 39.63 1356.21 45.3 1360.36 48.69C1364.51 52.08 1370.27 51.97 1373.6 48.56C1373.88 48.27 1373.85 47.8 1373.54 47.55Z" fill="#FFFFFF" fill-opacity="1.000000" fill-rule="nonzero"/>
		<rect id="atom" rx="-0.500000" width="19.337391" height="8.222060" transform="translate(1292.637695 75.849121) rotate(134.771683)" fill="#FFFFFF" fill-opacity="0"/>
		<path id="Vector" d="M1278.3 89.29L1291.65 75.83C1291.93 75.55 1291.92 75.08 1291.61 74.83C1287.94 71.78 1282.19 72.26 1278.43 76.07C1274.66 79.87 1274.21 85.62 1277.29 89.26C1277.55 89.57 1278.02 89.58 1278.3 89.29Z" fill="#FFFFFF" fill-opacity="1.000000" fill-rule="nonzero"/>
		<rect id="atom" rx="-0.500000" width="19.337374" height="9.138152" transform="translate(1278.850586 38.402588) rotate(83.937759)" fill="#FFFFFF" fill-opacity="0"/>
		<path id="Ellipse 7" d="M1275.46 58.66C1272.67 58.95 1269.93 54.66 1269.34 49.08C1268.75 43.5 1270.53 38.73 1273.31 38.43C1276.09 38.14 1278.82 42.42 1279.42 48.01C1280.02 53.59 1278.24 58.36 1275.46 58.66Z" fill="#FFFFFF" fill-opacity="1.000000" fill-rule="nonzero"/>
		<rect id="atom" rx="-0.500000" width="19.337389" height="9.138156" transform="translate(1365.892578 89.549561) rotate(-96.062218)" fill="#FFFFFF" fill-opacity="0"/>
		<path id="Ellipse 7" d="M1368.29 68.29C1371.07 67.99 1373.81 72.28 1374.4 77.86C1374.99 83.45 1373.22 88.21 1370.43 88.51C1367.65 88.8 1364.91 84.52 1364.32 78.93C1363.73 73.35 1365.5 68.58 1368.29 68.29Z" fill="#FFFFFF" fill-opacity="1.000000" fill-rule="nonzero"/>
		<rect id="atom" rx="-0.500000" width="19.337389" height="7.073940" transform="translate(1323.279297 30.110596) rotate(-54.290577)" fill="#FFFFFF" fill-opacity="0"/>
		<path id="Ellipse 7" d="M1337.93 15.45C1339.74 16.75 1338.55 21.5 1335.27 26.06C1331.99 30.62 1327.87 33.26 1326.06 31.96C1324.25 30.66 1325.44 25.91 1328.71 21.35C1331.99 16.79 1336.12 14.15 1337.93 15.45Z" fill="#FFFFFF" fill-opacity="1.000000" fill-rule="nonzero"/>
		<rect id="atom" rx="-0.500000" width="19.337372" height="7.073938" transform="translate(1317.703125 73.666748) rotate(96.214798)" fill="#FFFFFF" fill-opacity="0"/>
		<path id="Ellipse 7" d="M1310.99 92.94C1308.77 92.7 1307.47 87.98 1308.07 82.4C1308.68 76.81 1310.97 72.48 1313.19 72.72C1315.41 72.97 1316.71 77.69 1316.1 83.27C1315.49 88.85 1313.21 93.18 1310.99 92.94Z" fill="#FFFFFF" fill-opacity="1.000000" fill-rule="nonzero"/>
		<rect id="atom" rx="-0.500000" width="19.337381" height="8.283121" transform="translate(1294.611328 39.353271) rotate(17.999701)" fill="#FFFFFF" fill-opacity="0"/>
		<path id="Subtract (Stroke)" d="M1312.17 45.31C1313.09 46.61 1312.79 48.41 1311.49 49.33C1308.56 51.41 1304.64 52.03 1300.91 50.82C1297.18 49.61 1294.37 46.8 1293.23 43.4C1292.72 41.89 1293.54 40.25 1295.05 39.75C1296.56 39.24 1298.19 40.06 1298.71 41.57C1299.25 43.17 1300.65 44.67 1302.69 45.34C1304.74 46 1306.76 45.62 1308.14 44.63C1309.43 43.71 1311.24 44.01 1312.17 45.31Z" fill="#FFFFFF" fill-opacity="1.000000" fill-rule="evenodd"/>
		<rect id="atom" rx="-0.500000" width="19.337378" height="8.283137" transform="translate(1351.841797 87.759766) rotate(-162.000244)" fill="#FFFFFF" fill-opacity="0"/>
		<path id="Subtract (Stroke)" d="M1333.29 80.79C1332.36 79.5 1332.66 77.7 1333.96 76.77C1336.88 74.69 1340.81 74.07 1344.54 75.28C1348.26 76.49 1351.08 79.31 1352.22 82.71C1352.73 84.22 1351.92 85.85 1350.4 86.36C1348.89 86.86 1347.25 86.04 1346.75 84.53C1346.21 82.93 1344.8 81.43 1342.76 80.77C1340.71 80.1 1338.7 80.49 1337.32 81.47C1336.02 82.39 1334.22 82.09 1333.29 80.79Z" fill="#FFFFFF" fill-opacity="1.000000" fill-rule="evenodd"/>
		<rect id="atom" rx="-0.500000" width="19.337370" height="8.283123" transform="translate(1375.940430 26.919434) rotate(-135.627472)" fill="#FFFFFF" fill-opacity="0"/>
		<path id="Subtract (Stroke)" d="M1362.14 12.61C1361.88 11.03 1362.95 9.55 1364.52 9.3C1368.07 8.74 1371.86 9.93 1374.66 12.67C1377.46 15.41 1378.74 19.18 1378.25 22.73C1378.03 24.31 1376.58 25.41 1375 25.19C1373.42 24.97 1372.32 23.51 1372.53 21.93C1372.76 20.26 1372.17 18.29 1370.63 16.79C1369.09 15.28 1367.12 14.73 1365.45 15C1363.87 15.25 1362.39 14.18 1362.14 12.61Z" fill="#FFFFFF" fill-opacity="1.000000" fill-rule="evenodd"/>
		<rect id="atom" rx="-0.500000" width="19.337385" height="8.283123" transform="translate(1298.981445 110.109619) rotate(8.575407)" fill="#FFFFFF" fill-opacity="0"/>
		<path id="Subtract (Stroke)" d="M1317.35 113.02C1318.48 114.15 1318.47 115.97 1317.35 117.1C1314.8 119.63 1311.03 120.88 1307.15 120.3C1303.28 119.72 1300.04 117.4 1298.36 114.24C1297.61 112.83 1298.15 111.08 1299.55 110.34C1300.96 109.59 1302.71 110.13 1303.46 111.54C1304.25 113.03 1305.88 114.28 1308.01 114.6C1310.14 114.92 1312.06 114.21 1313.26 113.02C1314.39 111.89 1316.22 111.89 1317.35 113.02Z" fill="#FFFFFF" fill-opacity="1.000000" fill-rule="evenodd"/>
		<rect id="atom" rx="-0.500000" width="18.176991" height="8.099911" transform="translate(1299.500977 13.450195) rotate(-33.850700)" fill="#FFFFFF" fill-opacity="0"/>
		<path id="Rectangle 6255" d="M1300.36 14.97C1299.61 13.85 1299.91 12.34 1301.03 11.58L1312.9 3.62C1314.02 2.87 1315.54 3.17 1316.29 4.29L1318.64 7.79C1319.39 8.91 1319.09 10.43 1317.97 11.18L1306.1 19.14C1304.98 19.89 1303.46 19.59 1302.71 18.47L1300.36 14.97Z" fill="#FFFFFF" fill-opacity="1.000000" fill-rule="nonzero"/>
		<rect id="atom" rx="-0.500000" width="18.176977" height="8.099898" transform="translate(1327.158203 99.858643) rotate(-12.315752)" fill="#FFFFFF" fill-opacity="0"/>
		<path id="Rectangle 6255" d="M1327.18 101.74C1326.89 100.42 1327.73 99.12 1329.04 98.83L1343.01 95.78C1344.33 95.5 1345.63 96.33 1345.92 97.65L1346.81 101.77C1347.1 103.09 1346.27 104.39 1344.95 104.68L1330.99 107.72C1329.67 108.01 1328.37 107.18 1328.08 105.86L1327.18 101.74Z" fill="#FFFFFF" fill-opacity="1.000000" fill-rule="nonzero"/>
		<rect id="atom" rx="-0.500000" width="18.176996" height="8.099913" transform="translate(1339.924805 64.696777) rotate(-131.732651)" fill="#FFFFFF" fill-opacity="0"/>
		<path id="Rectangle 6255" d="M1341.25 62.57C1340.24 63.46 1338.7 63.38 1337.8 62.37L1328.29 51.7C1327.39 50.7 1327.48 49.15 1328.48 48.25L1331.63 45.45C1332.63 44.55 1334.18 44.64 1335.08 45.65L1344.59 56.31C1345.49 57.32 1345.4 58.86 1344.39 59.76L1341.25 62.57Z" fill="#FFFFFF" fill-opacity="1.000000" fill-rule="nonzero"/>
		<rect id="atom" rx="-0.500000" width="18.176958" height="8.099909" transform="translate(1277.737305 99.865723) rotate(80.259499)" fill="#FFFFFF" fill-opacity="0"/>
		<path id="Rectangle 6255" d="M1274.82 99.77C1276.16 99.55 1277.42 100.44 1277.65 101.77L1280.06 115.85C1280.3 117.18 1279.4 118.45 1278.06 118.67L1273.92 119.39C1272.59 119.62 1271.32 118.72 1271.1 117.39L1268.68 103.31C1268.44 101.98 1269.35 100.72 1270.68 100.49L1274.82 99.77Z" fill="#FFFFFF" fill-opacity="1.000000" fill-rule="nonzero"/>
		<rect id="pattern2" rx="-0.500000" width="125.000000" height="125.000000" transform="translate(1386.500000 0.500000)" fill="#FFFFFF" fill-opacity="0"/>
		<rect id="atom" rx="-0.500000" width="19.337379" height="8.222054" transform="translate(1396.389648 10.378662) rotate(41.880878)" fill="#FFFFFF" fill-opacity="0"/>
		<path id="Vector" d="M1410.52 22.99L1396.4 10.33C1396.11 10.07 1395.64 10.1 1395.4 10.43C1392.54 14.24 1393.32 19.95 1397.3 23.53C1401.29 27.1 1407.06 27.26 1410.54 24C1410.83 23.72 1410.82 23.26 1410.52 22.99Z" fill="#FFFFFF" fill-opacity="1.000000" fill-rule="nonzero"/>
		<rect id="atom" rx="-0.500000" width="19.337383" height="8.222057" transform="translate(1498.740234 123.015625) rotate(-138.119064)" fill="#FFFFFF" fill-opacity="0"/>
		<path id="Vector" d="M1483.61 109.39L1497.73 122.05C1498.02 122.32 1498.49 122.28 1498.73 121.96C1501.59 118.15 1500.81 112.43 1496.83 108.86C1492.84 105.28 1487.07 105.13 1483.59 108.39C1483.3 108.66 1483.31 109.13 1483.61 109.39Z" fill="#FFFFFF" fill-opacity="1.000000" fill-rule="nonzero"/>
		<rect id="atom" rx="-0.500000" width="19.337391" height="8.222057" transform="translate(1484.824219 35.621582) rotate(39.257843)" fill="#FFFFFF" fill-opacity="0"/>
		<path id="Vector" d="M1499.54 47.55L1484.86 35.55C1484.55 35.3 1484.08 35.36 1483.86 35.69C1481.18 39.63 1482.21 45.3 1486.36 48.69C1490.51 52.08 1496.27 51.97 1499.6 48.56C1499.88 48.27 1499.85 47.8 1499.54 47.55Z" fill="#FFFFFF" fill-opacity="1.000000" fill-rule="nonzero"/>
		<rect id="atom" rx="-0.500000" width="19.337391" height="8.222060" transform="translate(1418.637695 75.849121) rotate(134.771683)" fill="#FFFFFF" fill-opacity="0"/>
		<path id="Vector" d="M1404.3 89.29L1417.65 75.83C1417.93 75.55 1417.92 75.08 1417.61 74.83C1413.95 71.78 1408.2 72.26 1404.43 76.07C1400.66 79.87 1400.21 85.62 1403.29 89.26C1403.55 89.57 1404.02 89.58 1404.3 89.29Z" fill="#FFFFFF" fill-opacity="1.000000" fill-rule="nonzero"/>
		<rect id="atom" rx="-0.500000" width="19.337374" height="9.138152" transform="translate(1404.850586 38.402588) rotate(83.937759)" fill="#FFFFFF" fill-opacity="0"/>
		<path id="Ellipse 7" d="M1401.46 58.66C1398.67 58.95 1395.94 54.66 1395.34 49.08C1394.75 43.5 1396.53 38.73 1399.31 38.43C1402.09 38.14 1404.83 42.42 1405.42 48.01C1406.02 53.59 1404.24 58.36 1401.46 58.66Z" fill="#FFFFFF" fill-opacity="1.000000" fill-rule="nonzero"/>
		<rect id="atom" rx="-0.500000" width="19.337389" height="9.138156" transform="translate(1491.892578 89.549561) rotate(-96.062218)" fill="#FFFFFF" fill-opacity="0"/>
		<path id="Ellipse 7" d="M1494.29 68.29C1497.07 67.99 1499.81 72.28 1500.4 77.86C1500.99 83.45 1499.22 88.21 1496.43 88.51C1493.65 88.8 1490.91 84.52 1490.32 78.93C1489.73 73.35 1491.5 68.58 1494.29 68.29Z" fill="#FFFFFF" fill-opacity="1.000000" fill-rule="nonzero"/>
		<rect id="atom" rx="-0.500000" width="19.337389" height="7.073940" transform="translate(1449.279297 30.110596) rotate(-54.290577)" fill="#FFFFFF" fill-opacity="0"/>
		<path id="Ellipse 7" d="M1463.93 15.45C1465.74 16.75 1464.55 21.5 1461.27 26.06C1457.99 30.62 1453.87 33.26 1452.06 31.96C1450.25 30.66 1451.44 25.91 1454.71 21.35C1457.99 16.79 1462.12 14.15 1463.93 15.45Z" fill="#FFFFFF" fill-opacity="1.000000" fill-rule="nonzero"/>
		<rect id="atom" rx="-0.500000" width="19.337372" height="7.073938" transform="translate(1443.703125 73.666748) rotate(96.214798)" fill="#FFFFFF" fill-opacity="0"/>
		<path id="Ellipse 7" d="M1436.99 92.94C1434.77 92.7 1433.47 87.98 1434.08 82.4C1434.68 76.81 1436.97 72.48 1439.19 72.72C1441.41 72.97 1442.71 77.69 1442.1 83.27C1441.49 88.85 1439.21 93.18 1436.99 92.94Z" fill="#FFFFFF" fill-opacity="1.000000" fill-rule="nonzero"/>
		<rect id="atom" rx="-0.500000" width="19.337381" height="8.283121" transform="translate(1420.611328 39.353271) rotate(17.999701)" fill="#FFFFFF" fill-opacity="0"/>
		<path id="Subtract (Stroke)" d="M1438.17 45.31C1439.09 46.61 1438.79 48.41 1437.49 49.33C1434.57 51.41 1430.64 52.03 1426.91 50.82C1423.19 49.61 1420.37 46.8 1419.23 43.4C1418.72 41.89 1419.54 40.25 1421.05 39.75C1422.56 39.24 1424.2 40.06 1424.71 41.57C1425.25 43.17 1426.65 44.67 1428.7 45.34C1430.74 46 1432.76 45.62 1434.14 44.63C1435.43 43.71 1437.24 44.01 1438.17 45.31Z" fill="#FFFFFF" fill-opacity="1.000000" fill-rule="evenodd"/>
		<rect id="atom" rx="-0.500000" width="19.337378" height="8.283137" transform="translate(1477.841797 87.759766) rotate(-162.000244)" fill="#FFFFFF" fill-opacity="0"/>
		<path id="Subtract (Stroke)" d="M1459.29 80.79C1458.36 79.5 1458.66 77.7 1459.96 76.77C1462.88 74.69 1466.81 74.07 1470.54 75.28C1474.26 76.49 1477.08 79.31 1478.22 82.71C1478.73 84.22 1477.92 85.85 1476.4 86.36C1474.89 86.86 1473.25 86.04 1472.75 84.53C1472.21 82.93 1470.8 81.43 1468.76 80.77C1466.71 80.1 1464.7 80.49 1463.32 81.47C1462.02 82.39 1460.22 82.09 1459.29 80.79Z" fill="#FFFFFF" fill-opacity="1.000000" fill-rule="evenodd"/>
		<rect id="atom" rx="-0.500000" width="19.337370" height="8.283123" transform="translate(1501.940430 26.919434) rotate(-135.627472)" fill="#FFFFFF" fill-opacity="0"/>
		<path id="Subtract (Stroke)" d="M1488.14 12.61C1487.88 11.03 1488.95 9.55 1490.52 9.3C1494.07 8.74 1497.86 9.93 1500.66 12.67C1503.46 15.41 1504.74 19.18 1504.25 22.73C1504.03 24.31 1502.58 25.41 1501 25.19C1499.42 24.97 1498.32 23.51 1498.53 21.93C1498.76 20.26 1498.17 18.29 1496.63 16.79C1495.09 15.28 1493.12 14.73 1491.45 15C1489.87 15.25 1488.39 14.18 1488.14 12.61Z" fill="#FFFFFF" fill-opacity="1.000000" fill-rule="evenodd"/>
		<rect id="atom" rx="-0.500000" width="19.337385" height="8.283123" transform="translate(1424.981445 110.109619) rotate(8.575407)" fill="#FFFFFF" fill-opacity="0"/>
		<path id="Subtract (Stroke)" d="M1443.35 113.02C1444.48 114.15 1444.47 115.97 1443.35 117.1C1440.8 119.63 1437.03 120.88 1433.15 120.3C1429.28 119.72 1426.04 117.4 1424.36 114.24C1423.61 112.83 1424.15 111.08 1425.55 110.34C1426.96 109.59 1428.71 110.13 1429.46 111.54C1430.25 113.03 1431.88 114.28 1434.01 114.6C1436.14 114.92 1438.06 114.21 1439.26 113.02C1440.39 111.89 1442.22 111.89 1443.35 113.02Z" fill="#FFFFFF" fill-opacity="1.000000" fill-rule="evenodd"/>
		<rect id="atom" rx="-0.500000" width="18.176991" height="8.099911" transform="translate(1425.500977 13.450195) rotate(-33.850700)" fill="#FFFFFF" fill-opacity="0"/>
		<path id="Rectangle 6255" d="M1426.36 14.97C1425.61 13.85 1425.91 12.34 1427.03 11.58L1438.9 3.62C1440.02 2.87 1441.54 3.17 1442.29 4.29L1444.64 7.79C1445.39 8.91 1445.09 10.43 1443.97 11.18L1432.1 19.14C1430.98 19.89 1429.46 19.59 1428.71 18.47L1426.36 14.97Z" fill="#FFFFFF" fill-opacity="1.000000" fill-rule="nonzero"/>
		<rect id="atom" rx="-0.500000" width="18.176977" height="8.099898" transform="translate(1453.158203 99.858643) rotate(-12.315752)" fill="#FFFFFF" fill-opacity="0"/>
		<path id="Rectangle 6255" d="M1453.18 101.74C1452.89 100.42 1453.73 99.12 1455.04 98.83L1469.01 95.78C1470.33 95.5 1471.63 96.33 1471.92 97.65L1472.81 101.77C1473.1 103.09 1472.27 104.39 1470.95 104.68L1456.99 107.72C1455.67 108.01 1454.37 107.18 1454.08 105.86L1453.18 101.74Z" fill="#FFFFFF" fill-opacity="1.000000" fill-rule="nonzero"/>
		<rect id="atom" rx="-0.500000" width="18.176996" height="8.099913" transform="translate(1465.924805 64.696777) rotate(-131.732651)" fill="#FFFFFF" fill-opacity="0"/>
		<path id="Rectangle 6255" d="M1467.25 62.57C1466.24 63.46 1464.7 63.38 1463.8 62.37L1454.29 51.7C1453.39 50.7 1453.48 49.15 1454.48 48.25L1457.63 45.45C1458.63 44.55 1460.18 44.64 1461.08 45.65L1470.59 56.31C1471.49 57.32 1471.4 58.86 1470.39 59.76L1467.25 62.57Z" fill="#FFFFFF" fill-opacity="1.000000" fill-rule="nonzero"/>
		<rect id="atom" rx="-0.500000" width="18.176958" height="8.099909" transform="translate(1403.737305 99.865723) rotate(80.259499)" fill="#FFFFFF" fill-opacity="0"/>
		<path id="Rectangle 6255" d="M1400.83 99.77C1402.16 99.55 1403.42 100.44 1403.65 101.77L1406.07 115.85C1406.3 117.18 1405.4 118.45 1404.07 118.67L1399.92 119.39C1398.59 119.62 1397.33 118.72 1397.1 117.39L1394.68 103.31C1394.45 101.98 1395.35 100.72 1396.68 100.49L1400.83 99.77Z" fill="#FFFFFF" fill-opacity="1.000000" fill-rule="nonzero"/>
	</g>
</svg>
