<svg width="24.000000" height="24.000000" viewBox="0 0 24 24" fill="none" xmlns="http://www.w3.org/2000/svg" xlink="http://www.w3.org/1999/xlink">
	<desc>
			Created with Pixso.
	</desc>
	<defs/>
	<rect id="feather-icon / shopping-cart" rx="-0.500000" width="23.000000" height="23.000000" transform="translate(0.500000 0.500000)" fill="#FFFFFF" fill-opacity="0"/>
	<path id="Oval (Stroke)" d="M5.5 21C5.5 19.61 6.61 18.5 8 18.5C9.38 18.5 10.5 19.61 10.5 21C10.5 22.38 9.38 23.5 8 23.5C6.61 23.5 5.5 22.38 5.5 21ZM8 19.5C7.17 19.5 6.5 20.17 6.5 21C6.5 21.82 7.17 22.5 8 22.5C8.82 22.5 9.5 21.82 9.5 21C9.5 20.17 8.82 19.5 8 19.5Z" fill="#414141" fill-opacity="1.000000" fill-rule="evenodd"/>
	<path id="Oval (Stroke)" d="M17.5 21C17.5 19.61 18.61 18.5 20 18.5C21.38 18.5 22.5 19.61 22.5 21C22.5 22.38 21.38 23.5 20 23.5C18.61 23.5 17.5 22.38 17.5 21ZM20 19.5C19.17 19.5 18.5 20.17 18.5 21C18.5 21.82 19.17 22.5 20 22.5C20.82 22.5 21.5 21.82 21.5 21C21.5 20.17 20.82 19.5 20 19.5Z" fill="#414141" fill-opacity="1.000000" fill-rule="evenodd"/>
	<path id="Union" d="M1 0.5C0.72 0.5 0.5 0.72 0.5 1C0.5 1.27 0.72 1.5 1 1.5L4.58 1.5C5.33 5.79 6.1 10.06 6.74 14.37C6.93 15.59 7.98 16.5 9.22 16.5L19.35 16.5C20.55 16.5 21.57 15.65 21.81 14.49L23.25 7.29C23.43 6.36 22.72 5.5 21.77 5.5L7.16 5.5C6.85 5.5 6.57 5.58 6.34 5.74L5.49 0.91C5.45 0.67 5.24 0.5 5 0.5L1 0.5ZM6.66 7.07C6.62 6.77 6.85 6.5 7.16 6.5L21.77 6.5C22.09 6.5 22.33 6.78 22.26 7.09L20.83 14.29C20.69 14.99 20.07 15.5 19.35 15.5L9.22 15.5C8.47 15.5 7.84 14.95 7.73 14.22L6.66 7.07Z" fill="#414141" fill-opacity="1.000000" fill-rule="evenodd"/>
</svg>
