<svg width="64.000000" height="44.000732" viewBox="0 0 64 44.0007" fill="none" xmlns="http://www.w3.org/2000/svg" xlink="http://www.w3.org/1999/xlink">
	<desc>
			Created with Pixso.
	</desc>
	<defs/>
	<path id="Vector" d="M44.99 14.26L17.47 14.26C16.89 14.26 16.42 14.73 16.47 15.28C17.08 21.87 23.45 27.05 31.23 27.05C39 27.05 45.38 21.87 45.98 15.28C46.03 14.73 45.56 14.26 44.99 14.26Z" fill="#FF6633" fill-opacity="1.000000" fill-rule="nonzero"/>
	<path id="Vector" d="M26.26 4.4C25.95 4.4 25.65 4.27 25.45 4.02C24.44 2.75 22.53 1.95 20.47 1.95C18.4 1.95 16.49 2.74 15.48 4.02C15.14 4.45 14.5 4.53 14.06 4.2C13.61 3.88 13.52 3.26 13.86 2.83C15.27 1.05 17.73 0 20.47 0C23.2 0 25.67 1.05 27.07 2.83C27.41 3.26 27.33 3.88 26.88 4.2C26.69 4.34 26.48 4.4 26.26 4.4Z" fill="#414141" fill-opacity="1.000000" fill-rule="nonzero"/>
	<path id="Vector" d="M47.78 4.4C47.48 4.4 47.17 4.27 46.97 4.02C45.97 2.75 44.06 1.95 41.99 1.95C39.92 1.95 38.01 2.74 37.01 4.02C36.66 4.45 36.02 4.53 35.58 4.2C35.13 3.88 35.04 3.26 35.38 2.83C36.79 1.05 39.26 0 41.99 0C44.72 0 47.19 1.05 48.59 2.83C48.93 3.26 48.85 3.88 48.4 4.2C48.21 4.34 48 4.4 47.78 4.4Z" fill="#414141" fill-opacity="1.000000" fill-rule="nonzero"/>
	<path id="Vector" d="M2.85 30L2.45 31.02C2.41 31.1 2.28 31.13 2.16 31.09C1.89 31.01 1.61 30.87 1.32 30.67C1.02 30.46 0.79 30.25 0.62 30.02C0.36 29.67 0.18 29.3 0.08 28.9C-0.01 28.49 -0.03 28.1 0.03 27.72C0.09 27.34 0.23 26.97 0.45 26.62C0.67 26.27 0.96 25.97 1.32 25.72C1.67 25.48 2.06 25.31 2.47 25.22C2.89 25.13 3.29 25.11 3.69 25.18C4.09 25.24 4.47 25.38 4.83 25.6C5.2 25.81 5.52 26.09 5.78 26.44C5.94 26.66 6.08 26.94 6.19 27.28C6.3 27.61 6.36 27.92 6.35 28.22C6.36 28.34 6.27 28.42 6.17 28.43L5.04 28.46C4.94 28.46 4.85 28.36 4.85 28.22C4.85 28.06 4.83 27.89 4.77 27.71C4.72 27.54 4.65 27.39 4.57 27.28C4.29 26.91 3.92 26.69 3.46 26.62C3 26.54 2.58 26.64 2.2 26.9C1.82 27.17 1.59 27.52 1.52 27.96C1.45 28.4 1.56 28.81 1.84 29.17C1.92 29.29 2.04 29.4 2.19 29.5C2.35 29.6 2.5 29.68 2.65 29.72C2.8 29.77 2.89 29.89 2.85 30Z" fill="#414141" fill-opacity="1.000000" fill-rule="nonzero"/>
	<path id="Vector" d="M7.35 28.83C7.44 28.73 7.56 28.73 7.66 28.82L10.56 31.38C10.66 31.47 10.66 31.58 10.57 31.68L9.92 32.36C9.82 32.46 9.72 32.47 9.61 32.37L7.65 30.64L6.97 31.36L8.45 32.67C8.56 32.77 8.57 32.89 8.47 32.99L7.94 33.55C7.84 33.65 7.72 33.65 7.61 33.55L6.12 32.24L5.42 32.98L7.38 34.71C7.51 34.83 7.52 34.99 7.41 35.11L6.8 35.75C6.71 35.84 6.58 35.84 6.48 35.75L3.53 33.14C3.43 33.05 3.42 32.94 3.51 32.84L7.35 28.83Z" fill="#414141" fill-opacity="1.000000" fill-rule="nonzero"/>
	<path id="Vector" d="M13.62 37.25C13.61 37.54 13.52 37.8 13.36 38.05C13.06 38.53 12.66 38.8 12.17 38.87C11.68 38.94 11.15 38.81 10.58 38.47L8.57 37.26C8.47 37.21 8.46 37.13 8.51 37.05L11.58 32.32C11.63 32.24 11.71 32.22 11.8 32.28L13.66 33.39C14.21 33.72 14.55 34.1 14.69 34.53C14.82 34.97 14.75 35.41 14.45 35.87C14.21 36.23 13.8 36.47 13.39 36.48C13.55 36.71 13.62 36.97 13.62 37.25ZM11.28 37.35C11.61 37.55 11.95 37.48 12.15 37.17C12.35 36.86 12.26 36.55 11.93 36.35L11.08 35.85L10.44 36.84L11.28 37.35ZM12.23 34.08L11.69 34.92L12.38 35.34C12.66 35.51 12.94 35.45 13.11 35.19C13.28 34.93 13.21 34.66 12.93 34.5L12.23 34.08Z" fill="#414141" fill-opacity="1.000000" fill-rule="nonzero"/>
	<path id="Vector" d="M16.46 35.18C16.51 35.06 16.62 35.01 16.75 35.06L20.4 36.47C20.53 36.52 20.57 36.63 20.52 36.75L20.16 37.61C20.11 37.74 20.01 37.78 19.87 37.73L17.41 36.77L17.04 37.68L18.91 38.4C19.04 38.45 19.1 38.56 19.04 38.69L18.75 39.4C18.7 39.52 18.58 39.56 18.44 39.51L16.57 38.79L16.18 39.72L18.65 40.67C18.82 40.74 18.89 40.88 18.83 41.03L18.49 41.84C18.44 41.96 18.33 42 18.2 41.95L14.47 40.51C14.34 40.46 14.3 40.36 14.35 40.24L16.46 35.18Z" fill="#414141" fill-opacity="1.000000" fill-rule="nonzero"/>
	<path id="Vector" d="M23.97 37.34C24.61 37.47 25.08 37.76 25.4 38.21C25.71 38.66 25.8 39.18 25.66 39.79C25.53 40.39 25.21 40.82 24.74 41.1C24.26 41.37 23.7 41.45 23.06 41.31L22.35 41.16L21.99 42.72C21.96 42.85 21.86 42.92 21.72 42.89L20.67 42.66C20.54 42.64 20.48 42.54 20.51 42.41L21.72 37.09C21.75 36.97 21.86 36.9 21.98 36.92L22.51 37.04L23.04 37.15L23.97 37.34ZM23.3 40.01C23.51 40.05 23.7 40.02 23.86 39.92C24.03 39.82 24.14 39.67 24.18 39.47C24.23 39.27 24.2 39.09 24.09 38.93C23.99 38.77 23.83 38.66 23.62 38.62L22.96 38.48L22.65 39.87L23.3 40.01Z" fill="#414141" fill-opacity="1.000000" fill-rule="nonzero"/>
	<path id="Vector" d="M31.27 38.13C31.4 38.13 31.48 38.23 31.48 38.35L31.16 43.79C31.16 43.93 31.07 44 30.94 44L29.87 43.94C29.72 43.93 29.64 43.84 29.65 43.71L29.74 42.09L29.12 42.06L28.13 43.67C28.04 43.8 27.99 43.84 27.87 43.83L26.62 43.77C26.49 43.76 26.42 43.63 26.49 43.51L27.67 41.66C27.09 41.29 26.78 40.67 26.82 39.93C26.86 39.32 27.09 38.83 27.51 38.48C27.94 38.13 28.48 37.98 29.13 38.01L31 38.11L31.27 38.13ZM29.82 40.83L29.9 39.37L29.12 39.33C28.9 39.32 28.72 39.38 28.57 39.5C28.43 39.63 28.35 39.79 28.33 40C28.32 40.21 28.38 40.39 28.51 40.55C28.65 40.7 28.82 40.78 29.04 40.79L29.82 40.83Z" fill="#414141" fill-opacity="1.000000" fill-rule="nonzero"/>
	<path id="Vector" d="M37.88 37.55C37.99 37.54 38.04 37.58 38.06 37.69L38.75 43.21C38.76 43.32 38.71 43.37 38.61 43.39L37.43 43.52C37.33 43.53 37.27 43.49 37.26 43.38L36.98 41.19L34.71 41.45L34.99 43.65C35 43.75 34.95 43.81 34.85 43.82L33.68 43.95C33.57 43.97 33.51 43.92 33.5 43.82L32.81 38.29C32.8 38.18 32.84 38.13 32.95 38.12L34.12 37.98C34.23 37.97 34.29 38.02 34.3 38.12L34.55 40.14L36.82 39.87L36.57 37.86C36.56 37.75 36.61 37.7 36.71 37.68L37.88 37.55Z" fill="#414141" fill-opacity="1.000000" fill-rule="nonzero"/>
	<path id="Vector" d="M39.79 38.97C39.83 38.56 39.93 38.18 40.11 37.84C40.3 37.5 40.55 37.19 40.87 36.92C41.19 36.65 41.56 36.45 41.97 36.32C42.39 36.19 42.81 36.14 43.23 36.17C43.66 36.2 44.05 36.31 44.4 36.48C44.76 36.65 45.08 36.89 45.36 37.2C45.64 37.51 45.85 37.86 45.99 38.27C46.17 38.8 46.21 39.33 46.09 39.85C45.98 40.38 45.74 40.85 45.36 41.25C44.99 41.66 44.52 41.94 43.97 42.12C43.55 42.25 43.13 42.3 42.71 42.27C42.28 42.24 41.89 42.13 41.53 41.96C41.18 41.79 40.86 41.55 40.58 41.24C40.3 40.93 40.09 40.58 39.95 40.18C39.81 39.78 39.76 39.38 39.79 38.97ZM42.21 40.65C42.62 40.85 43.05 40.88 43.49 40.74C43.93 40.6 44.25 40.33 44.46 39.94C44.67 39.55 44.7 39.15 44.55 38.72C44.41 38.29 44.13 37.98 43.72 37.79C43.31 37.59 42.89 37.56 42.45 37.7C42.01 37.84 41.68 38.11 41.48 38.5C41.27 38.89 41.24 39.3 41.39 39.73C41.53 40.15 41.81 40.46 42.21 40.65Z" fill="#414141" fill-opacity="1.000000" fill-rule="nonzero"/>
	<path id="Vector" d="M49.94 32.77C50.04 32.71 50.17 32.75 50.23 32.86L53.06 37.58C53.12 37.68 53.09 37.81 52.98 37.86L52.04 38.38C51.94 38.44 51.81 38.41 51.75 38.31L50.8 36.71C50.68 37.1 50.39 37.47 49.99 37.69C49.37 38.04 48.74 38.13 48.12 37.96C47.51 37.8 47 37.4 46.62 36.76L45.77 35.33C45.71 35.23 45.73 35.1 45.83 35.05L46.76 34.53C46.88 34.47 47.01 34.5 47.08 34.61L47.93 36.03C48.26 36.58 48.79 36.72 49.36 36.4C49.65 36.24 49.82 36.04 49.9 35.79C49.98 35.54 49.94 35.28 49.78 35.02L48.92 33.58C48.86 33.48 48.89 33.35 48.99 33.29L49.94 32.77Z" fill="#414141" fill-opacity="1.000000" fill-rule="nonzero"/>
	<path id="Vector" d="M59.23 32.6C59.37 32.63 59.44 32.76 59.33 32.85L58.3 33.74C58.23 33.8 58.15 33.82 58.07 33.81L55.38 33.14L54.74 33.69L56.23 35.29C56.3 35.37 56.29 35.44 56.22 35.51L55.33 36.27C55.25 36.34 55.17 36.34 55.1 36.26L51.25 32.11C51.18 32.04 51.18 31.97 51.26 31.9L52.15 31.13C52.23 31.06 52.3 31.07 52.37 31.14L53.79 32.67L54.29 32.24L54.05 29.69C54.04 29.54 54.09 29.48 54.2 29.38L55.22 28.5C55.34 28.4 55.46 28.48 55.48 28.64L55.75 31.74L59.23 32.6Z" fill="#414141" fill-opacity="1.000000" fill-rule="nonzero"/>
	<path id="Vector" d="M63.84 26.67C63.98 26.7 64.04 26.8 63.95 26.93L63.27 27.87C63.2 27.96 63.07 28 62.95 27.97L62.13 27.74L60.91 29.41L61.41 30.06C61.49 30.15 61.49 30.28 61.42 30.38L60.74 31.32C60.65 31.44 60.53 31.43 60.44 31.31L57.09 26.42C57.02 26.3 57.02 26.17 57.09 26.08L57.6 25.39C57.66 25.29 57.8 25.25 57.92 25.28L63.84 26.67ZM60.12 28.37L60.85 27.38L58.97 26.85L60.12 28.37Z" fill="#414141" fill-opacity="1.000000" fill-rule="nonzero"/>
</svg>
