<svg width="152.000000" height="32.000000" viewBox="0 0 152 32" fill="none" xmlns="http://www.w3.org/2000/svg" xlink="http://www.w3.org/1999/xlink">
	<desc>
			Created with Pixso.
	</desc>
	<defs/>
	<rect id="atom" rx="-0.500000" width="32.659805" height="14.180889" transform="translate(3.647461 17.319000)" fill="#FFFFFF" fill-opacity="0"/>
	<path id="Vector" d="M35.66 16.81L4.28 16.81C3.62 16.81 3.09 17.37 3.15 18.03C3.84 25.84 11.11 31.99 19.97 31.99C28.84 31.99 36.11 25.85 36.8 18.03C36.86 17.37 36.32 16.81 35.66 16.81Z" fill="#FF6633" fill-opacity="1.000000" fill-rule="nonzero"/>
	<path id="Vector (Stroke)" d="M0.22 3.33C1.78 1.27 4.6 0 7.71 0C10.81 0 13.63 1.27 15.19 3.33C15.56 3.81 15.47 4.5 14.98 4.87C14.5 5.24 13.8 5.14 13.43 4.66C12.36 3.25 10.25 2.2 7.71 2.2C5.16 2.2 3.05 3.25 1.98 4.66C1.61 5.14 0.92 5.24 0.43 4.87C-0.05 4.5 -0.15 3.81 0.22 3.33Z" fill="#414141" fill-opacity="1.000000" fill-rule="evenodd"/>
	<path id="Vector (Stroke)" d="M24.76 3.33C26.33 1.27 29.14 0 32.25 0C35.35 0 38.17 1.27 39.73 3.33C40.1 3.81 40.01 4.5 39.52 4.87C39.04 5.24 38.35 5.14 37.98 4.66C36.9 3.25 34.79 2.2 32.25 2.2C29.7 2.2 27.59 3.25 26.52 4.66C26.15 5.14 25.46 5.24 24.97 4.87C24.49 4.5 24.39 3.81 24.76 3.33Z" fill="#414141" fill-opacity="1.000000" fill-rule="evenodd"/>
	<path id="Северяночка" d="M57.22 18.58C57.5 18.48 57.74 18.36 57.95 18.21C58.15 18.08 58.39 18.08 58.5 18.23L59.48 19.72C59.5 19.76 59.52 19.8 59.52 19.84C59.52 19.95 59.44 20.07 59.32 20.16C58.97 20.43 58.52 20.65 57.97 20.83C57.42 21 56.92 21.09 56.46 21.09C55.76 21.09 55.09 20.96 54.46 20.7C53.83 20.44 53.29 20.08 52.84 19.64C52.39 19.2 52.03 18.67 51.77 18.05C51.5 17.43 51.37 16.78 51.37 16.09C51.37 15.4 51.5 14.74 51.77 14.13C52.03 13.51 52.39 12.97 52.84 12.53C53.29 12.09 53.83 11.73 54.46 11.47C55.09 11.21 55.76 11.08 56.46 11.08C56.91 11.08 57.41 11.17 57.96 11.36Q58.79 11.62 59.37 12.05C59.47 12.12 59.53 12.23 59.53 12.33C59.53 12.39 59.51 12.44 59.48 12.48L58.48 13.95C58.38 14.09 58.17 14.11 57.98 13.97C57.76 13.81 57.52 13.68 57.23 13.58C56.95 13.48 56.69 13.43 56.46 13.43C55.71 13.43 55.07 13.69 54.55 14.21C54.02 14.72 53.76 15.34 53.76 16.09C53.76 16.82 54.02 17.45 54.55 17.96C55.07 18.47 55.71 18.73 56.46 18.73C56.69 18.73 56.94 18.68 57.22 18.58ZM112.73 18.05C112.47 17.43 112.34 16.78 112.34 16.09C112.34 15.4 112.47 14.75 112.73 14.13C112.99 13.51 113.35 12.97 113.79 12.53C114.24 12.09 114.78 11.74 115.4 11.48C116.02 11.22 116.68 11.09 117.37 11.09C118.07 11.09 118.72 11.22 119.34 11.48C119.96 11.74 120.5 12.09 120.94 12.53C121.39 12.97 121.75 13.51 122.01 14.13C122.27 14.75 122.4 15.4 122.4 16.09C122.4 17.01 122.18 17.85 121.73 18.62C121.29 19.38 120.69 19.98 119.91 20.43C119.15 20.87 118.3 21.08 117.37 21.08C116.68 21.08 116.02 20.95 115.4 20.69C114.78 20.43 114.24 20.08 113.79 19.64C113.35 19.19 112.99 18.66 112.73 18.05ZM128.96 11.61C128.96 11.42 129.11 11.26 129.3 11.26L131.03 11.26C131.22 11.26 131.36 11.41 131.36 11.61L131.36 20.53C131.36 20.72 131.2 20.88 131.01 20.88L129.3 20.88C129.11 20.88 128.96 20.73 128.96 20.54L128.96 17.53C128.48 17.98 127.79 18.28 127.05 18.28C125.91 18.28 124.98 17.92 124.27 17.2Q124.02 16.95 123.84 16.67Q123.2 15.7 123.2 14.32L123.2 11.61C123.2 11.42 123.34 11.26 123.52 11.26L125.22 11.26C125.43 11.26 125.59 11.41 125.59 11.61L125.59 14.31C125.59 15.34 126.21 15.96 127.25 15.96C127.77 15.96 128.18 15.8 128.49 15.51C128.8 15.21 128.96 14.82 128.96 14.32L128.96 11.61ZM147.75 11.26C147.94 11.26 148.11 11.39 148.19 11.58L151.71 20.5C151.74 20.56 151.75 20.61 151.75 20.66C151.75 20.8 151.65 20.89 151.46 20.89L149.58 20.89C149.39 20.89 149.23 20.76 149.15 20.58L148.72 19.31L145.36 19.31L144.93 20.57C144.88 20.75 144.71 20.89 144.5 20.89L142.63 20.89C142.44 20.89 142.34 20.79 142.34 20.65C142.34 20.6 142.35 20.55 142.37 20.5L145.9 11.58C145.99 11.37 146.17 11.26 146.35 11.26L147.75 11.26ZM61.07 20.88C60.85 20.88 60.72 20.75 60.72 20.54L60.72 11.61C60.72 11.39 60.85 11.26 61.07 11.26L67.3 11.26C67.52 11.26 67.65 11.39 67.65 11.61L67.65 13.13C67.65 13.36 67.53 13.47 67.3 13.47L63.1 13.47L63.1 15.07L66.29 15.07C66.52 15.07 66.67 15.2 66.67 15.43L66.67 16.68C66.67 16.9 66.52 17.03 66.29 17.03L63.1 17.03L63.1 18.67L67.3 18.67C67.6 18.67 67.78 18.85 67.78 19.12L67.78 20.54C67.78 20.75 67.64 20.88 67.42 20.88L61.07 20.88ZM76.06 14.04C76.06 14.74 75.72 15.42 75.17 15.78C75.58 15.97 75.9 16.26 76.14 16.66Q76.28 16.9 76.37 17.16Q76.5 17.55 76.5 17.98C76.5 18.9 76.2 19.61 75.6 20.12C75.02 20.62 74.19 20.88 73.12 20.88L69.37 20.88C69.2 20.88 69.11 20.79 69.11 20.63L69.11 11.51C69.11 11.35 69.2 11.26 69.37 11.26L72.84 11.26C73.86 11.26 74.65 11.51 75.21 11.99C75.78 12.48 76.06 13.17 76.06 14.04ZM78.04 20.88C77.82 20.88 77.69 20.75 77.69 20.54L77.69 11.61C77.69 11.39 77.82 11.26 78.04 11.26L84.27 11.26C84.49 11.26 84.62 11.39 84.62 11.61L84.62 13.13C84.62 13.36 84.5 13.47 84.27 13.47L80.07 13.47L80.07 15.07L83.26 15.07C83.49 15.07 83.64 15.2 83.64 15.43L83.64 16.68C83.64 16.9 83.49 17.03 83.26 17.03L80.07 17.03L80.07 18.67L84.27 18.67C84.57 18.67 84.75 18.85 84.75 19.12L84.75 20.54C84.75 20.75 84.61 20.88 84.39 20.88L78.04 20.88ZM87.28 11.26L89.64 11.26C90.67 11.26 91.51 11.57 92.15 12.18C92.79 12.78 93.12 13.59 93.12 14.61C93.12 15.61 92.79 16.41 92.15 17.02C91.51 17.61 90.67 17.92 89.64 17.92L88.48 17.92L88.48 20.54C88.48 20.75 88.35 20.89 88.12 20.89L86.43 20.89C86.21 20.89 86.08 20.75 86.08 20.54L86.08 11.62C86.08 11.41 86.22 11.26 86.43 11.26L87.28 11.26ZM97.42 11.26L100.82 11.26C101.03 11.26 101.16 11.41 101.16 11.61L101.16 20.54C101.16 20.75 101.04 20.89 100.82 20.89L99.13 20.89C98.89 20.89 98.76 20.75 98.76 20.54L98.76 17.88L97.78 17.88L96.36 20.59C96.23 20.82 96.15 20.89 95.96 20.89L93.98 20.89C93.82 20.89 93.71 20.77 93.71 20.63C93.71 20.58 93.73 20.53 93.75 20.48L95.45 17.36C94.5 16.8 93.95 15.8 93.95 14.6C93.95 13.59 94.27 12.78 94.91 12.18C95.55 11.57 96.39 11.26 97.42 11.26ZM108.78 11.52C108.78 11.35 108.87 11.26 109.03 11.26L110.91 11.26C111.07 11.26 111.16 11.35 111.16 11.52L111.16 20.63C111.16 20.8 111.07 20.89 110.91 20.89L109.03 20.89C108.87 20.89 108.78 20.8 108.78 20.63L108.78 17.01L105.16 17.01L105.16 20.63C105.16 20.8 105.08 20.89 104.91 20.89L103.04 20.89C102.87 20.89 102.79 20.8 102.79 20.63L102.79 11.52C102.79 11.35 102.87 11.26 103.04 11.26L104.91 11.26C105.08 11.26 105.16 11.35 105.16 11.52L105.16 14.84L108.78 14.84L108.78 11.52ZM141.79 11.72L138.71 15.8L141.87 20.48C141.92 20.54 141.94 20.62 141.94 20.68C141.94 20.8 141.86 20.9 141.71 20.9L139.52 20.9C139.38 20.9 139.26 20.85 139.17 20.75L136.74 17.11L135.37 17.11L135.37 20.62C135.37 20.79 135.29 20.88 135.12 20.88L133.24 20.88C133.06 20.88 132.98 20.79 132.98 20.62L132.98 11.52C132.98 11.36 133.06 11.27 133.24 11.27L135.12 11.27C135.29 11.27 135.37 11.36 135.37 11.52L135.37 14.86L136.44 14.86L138.95 11.51C139.1 11.31 139.23 11.28 139.46 11.28L141.64 11.28C141.79 11.28 141.87 11.37 141.87 11.49C141.87 11.56 141.85 11.64 141.79 11.72ZM73.67 14.21C73.67 13.71 73.34 13.4 72.82 13.4L71.51 13.4L71.51 15.03L72.82 15.03C73.34 15.03 73.67 14.71 73.67 14.21ZM96.68 15.46C96.9 15.7 97.19 15.82 97.52 15.82L98.76 15.82L98.76 13.42L97.52 13.42C97.18 13.42 96.9 13.53 96.68 13.75C96.46 13.97 96.35 14.24 96.35 14.59C96.35 14.93 96.46 15.22 96.68 15.46ZM88.48 13.43L88.48 15.75L89.54 15.75C89.88 15.75 90.16 15.64 90.38 15.42C90.61 15.21 90.72 14.93 90.72 14.59C90.72 14.26 90.61 13.98 90.38 13.76C90.16 13.54 89.88 13.43 89.54 13.43L88.48 13.43ZM115.5 14.23C114.99 14.74 114.73 15.36 114.73 16.09C114.73 16.82 114.98 17.44 115.49 17.94C116 18.45 116.63 18.7 117.37 18.7C118.11 18.7 118.73 18.45 119.24 17.94C119.75 17.44 120.01 16.82 120.01 16.09C120.01 15.36 119.75 14.74 119.24 14.23C118.73 13.72 118.11 13.47 117.37 13.47C116.64 13.47 116.01 13.72 115.5 14.23ZM148.03 17.33L147.03 14.41L146.04 17.33L148.03 17.33ZM71.51 16.81L71.51 18.74L73.09 18.74C73.71 18.74 74.1 18.36 74.1 17.76C74.1 17.17 73.71 16.81 73.09 16.81L71.51 16.81Z" fill="#414141" fillOpacity="1.000000" fill-rule="evenodd"/>
</svg>
