<svg width="49.000000" height="40.000000" viewBox="0 0 49 40" fill="none" xmlns="http://www.w3.org/2000/svg" xlink="http://www.w3.org/1999/xlink">
	<desc>
			Created with Pixso.
	</desc>
	<defs/>
	<path id="Vector" d="M5.36 21.15L43.68 21.15C44.48 21.15 45.14 21.84 45.07 22.64C44.23 32.23 35.35 39.78 24.52 39.78C13.69 39.78 4.82 32.23 3.98 22.64C3.9 21.84 4.56 21.15 5.36 21.15Z" fill="#FF6633" fill-opacity="1.000000" fill-rule="nonzero"/>
	<path id="Vector" d="M31.44 6.8C31.87 6.8 32.29 6.61 32.57 6.24C33.97 4.39 36.63 3.24 39.51 3.24C42.39 3.24 45.05 4.39 46.45 6.24C46.92 6.87 47.81 6.99 48.44 6.51C49.06 6.03 49.18 5.14 48.71 4.51C46.75 1.93 43.31 0.38 39.51 0.38C35.7 0.38 32.27 1.93 30.31 4.51C29.83 5.14 29.96 6.03 30.58 6.51C30.84 6.71 31.14 6.8 31.44 6.8Z" fill="#414141" fill-opacity="1.000000" fill-rule="nonzero"/>
	<path id="Vector" d="M1.47 6.8C1.9 6.8 2.32 6.61 2.6 6.24C4 4.39 6.66 3.24 9.54 3.24C12.42 3.24 15.08 4.39 16.48 6.24C16.95 6.87 17.84 6.99 18.47 6.51C19.09 6.03 19.21 5.14 18.74 4.51C16.78 1.93 13.34 0.38 9.54 0.38C5.73 0.38 2.3 1.93 0.34 4.51C-0.14 5.14 -0.01 6.03 0.61 6.51C0.87 6.71 1.17 6.8 1.47 6.8Z" fill="#414141" fill-opacity="1.000000" fill-rule="nonzero"/>
</svg>
