<svg width="24.000000" height="24.000000" viewBox="0 0 24 24" fill="none" xmlns="http://www.w3.org/2000/svg" xlink="http://www.w3.org/1999/xlink">
	<desc>
			Created with Pixso.
	</desc>
	<defs/>
	<rect id="Frame 211" rx="-0.500000" width="23.000000" height="23.000000" transform="translate(0.500000 0.500000)" fill="#FFFFFF" fill-opacity="0"/>
	<path id="Shape (Stroke)" d="M12.7 4.25C13.83 3.13 15.35 2.49 16.94 2.49C18.54 2.49 20.06 3.13 21.19 4.25C22.31 5.38 22.95 6.9 22.95 8.5C22.95 10.09 22.31 11.61 21.19 12.74L12.35 21.58C12.15 21.77 11.83 21.77 11.64 21.58L2.8 12.74C0.46 10.39 0.46 6.6 2.8 4.25C5.14 1.91 8.94 1.91 11.29 4.25L11.99 4.96L12.7 4.25ZM16.94 3.49C15.62 3.49 14.34 4.02 13.41 4.96L12.35 6.02C12.25 6.11 12.13 6.16 11.99 6.16C11.86 6.16 11.73 6.11 11.64 6.02L10.58 4.96C8.63 3.01 5.46 3.01 3.51 4.96C1.55 6.91 1.55 10.08 3.51 12.03L11.99 20.52L20.48 12.03C21.42 11.09 21.95 9.82 21.95 8.5C21.95 7.17 21.42 5.9 20.48 4.96C19.54 4.02 18.27 3.49 16.94 3.49Z" fill="#414141" fill-opacity="1.000000" fill-rule="evenodd"/>
</svg>
